<?xml version="1.0" encoding="UTF-8" standalone="no"?>
<!-- Created with Inkscape (http://www.inkscape.org/) -->

<svg
   width="637.79004mm"
   height="995.35291mm"
   viewBox="0 0 637.79003 995.35289"
   version="1.1"
   id="svg1"
   xml:space="preserve"
   xmlns="http://www.w3.org/2000/svg"
   xmlns:svg="http://www.w3.org/2000/svg"><defs
     id="defs1" /><g
     id="layer1"
     transform="translate(438.59931,944.21354)"><path
       style="fill:#000000"
       d="m -62.121206,50.651924 c -0.43686,-0.241553 -1.81218,-1.416613 -3.05627,-2.611244 -1.24408,-1.19463 -2.50614,-2.172055 -2.80458,-2.172055 -0.29844,0 -1.85999,-0.572288 -3.47012,-1.271752 -2.27817,-0.98967 -3.36524,-1.725747 -4.90103,-3.318575 -1.13384,-1.175945 -2.88106,-2.504944 -4.10649,-3.12354 -1.17313,-0.592193 -3.06562,-2.000724 -4.20554,-3.130068 -1.13991,-1.129345 -2.86036,-2.423661 -3.82322,-2.876259 -0.96286,-0.452598 -2.51981,-1.514438 -3.45988,-2.359645 -0.94008,-0.845207 -2.21358,-1.629703 -2.83001,-1.743324 -0.61643,-0.113621 -7.470784,-0.158329 -15.231894,-0.09935 l -14.11111,0.107235 -1.72013,0.970139 c -3.57256,2.014896 -7.64975,0.905655 -9.55795,-2.600336 -1.06477,-1.956341 -1.1364,-3.743638 -0.22153,-5.527608 0.93341,-1.820112 1.97087,-2.695976 4.81189,-4.062382 4.08739,-1.965857 5.56374,-2.087952 23.62105,-1.953458 l 16.227784,0.120866 2.69077,1.346659 c 1.47993,0.740662 3.1468,1.827028 3.70417,2.414146 0.55737,0.587117 1.80242,1.469953 2.7668,1.961856 1.93549,0.987251 3.85935,2.434644 5.79559,4.360261 0.69875,0.694912 1.98482,1.625088 2.85795,2.067058 0.87312,0.441969 1.66687,0.906183 1.76389,1.031586 0.097,0.125402 0.81139,0.700682 1.5875,1.278398 0.77611,0.577716 1.76611,1.470259 2.2,1.983427 0.53485,0.632562 1.74237,1.236637 3.74963,1.87579 2.76851,0.88155 3.81306,1.528667 6.72869,4.16856 0.51729,0.46836 1.29553,0.619204 3.19466,0.619204 2.123,0 2.69507,-0.135967 3.70405,-0.880367 1.47394,-1.087441 1.75376,-1.515085 1.76062,-2.69076 0.003,-0.508912 0.33959,-1.680768 0.74803,-2.604124 0.63937,-1.445396 0.73514,-2.297109 0.68875,-6.125411 -0.047,-3.880074 -0.14162,-4.539986 -0.74262,-5.179724 -0.37882,-0.403229 -0.68876,-0.851805 -0.68876,-0.996836 0,-0.145031 -0.37158,-1.087299 -0.82574,-2.09393 -1.94965,-4.321367 -1.97353,-4.569842 -1.97262,-20.5274592 l 8.5e-4,-14.8166668 1.04598,-2.98166 c 0.90811,-2.588667 1.04598,-3.4784 1.04598,-6.750461 0,-4.302752 0.41182,-6.016714 2.57792,-10.728991 l 1.45945,-3.175 0.21877,-6.526389 c 0.19634,-5.856997 0.75377,-9.976784 1.517,-11.211724 0.1335,-0.216009 -0.32593,-0.826336 -1.03796,-1.378883 -1.84571,-1.43229 -14.95179,-14.539036 -16.18181,-16.18263 -0.57183,-0.764095 -1.13507,-1.468638 -1.25166,-1.565652 -0.11659,-0.09701 -0.665,-0.960123 -1.21869,-1.918019 -1.40792,-2.435734 -3.52585,-4.634016 -5.49962,-5.708276 -1.88195,-1.024281 -4.69073,-4.073911 -5.47005,-5.939091 -0.28235,-0.67574 -0.51335,-2.05789 -0.51335,-3.07143 v -1.84282 l -6.79098,-6.828569 c -5.08143,-5.10958 -7.39822,-7.17953 -9.20321,-8.22269 -1.32673,-0.76676 -2.49034,-1.3941 -2.5858,-1.3941 -0.0955,0 -4.21691,-4.08782 -9.158794,-9.08403 -8.01572,-8.10385 -9.31208,-9.57888 -12.0144,-13.67014 -1.66603,-2.52236 -3.16626,-4.63903 -3.33382,-4.70371 -0.16757,-0.0647 -0.30467,-0.27419 -0.30467,-0.4656 0,-0.19141 -0.45086,-1.01162 -1.00191,-1.82269 -1.76192,-2.5933 -3.44335,-5.98661 -4.28409,-8.64579 -0.68081,-2.15332 -3.01435,-6.46653 -3.85012,-7.11638 -0.12477,-0.097 -0.43142,-0.64098 -0.68146,-1.20882 -1.40952,-3.20104 -3.58707,-6.25777 -6.42692,-9.02173 -3.98353,-3.8771 -5.52235,-5.96816 -7.03883,-9.56488 -1.08327,-2.56924 -1.66745,-3.37441 -4.7625,-6.56414 -1.94028,-1.99963 -3.92565,-4.41959 -4.41193,-5.37769 -0.48629,-0.9581 -1.37363,-2.26572 -1.97189,-2.90584 -1.0646,-1.13909 -2.25924,-3.33411 -2.25924,-4.15111 0,-0.22616 -0.40833,-0.94655 -0.9074,-1.60086 -0.73544,-0.96421 -0.96277,-1.77873 -1.19957,-4.29799 -0.2166,-2.3043 -0.79657,-4.58487 -2.24212,-8.81655 -2.09472,-6.13201 -2.3584,-6.74006 -3.67807,-8.48164 -0.98578,-1.30094 -2.90895,-5.83074 -2.90895,-6.85168 0,-0.37604 -0.47625,-1.70235 -1.05833,-2.94735 -0.58965,-1.26118 -1.05899,-2.856 -1.05981,-3.60126 -8.2e-4,-0.73569 -0.39769,-2.11859 -0.88195,-3.07311 -0.48426,-0.95451 -0.88047,-2.32419 -0.88047,-3.04372 0,-0.71953 -0.25809,-1.92294 -0.57353,-2.67424 -1.70706,-4.06576 -1.91498,-5.75137 -1.8841,-15.27465 l 0.0295,-9.09133 -1.96092,-3.75601 c -1.12432,-2.15357 -1.96092,-4.21307 -1.96092,-4.82732 0,-1.77016 -0.86918,-3.31601 -3.31716,-5.89961 -2.72806,-2.8792 -4.06921,-5.24281 -5.50919,-9.70927 -0.93363,-2.89589 -1.2659,-3.46912 -3.01146,-5.19531 -2.47376,-2.44633 -4.34796,-5.61058 -4.80589,-8.11389 -0.9545,-5.21791 -1.18041,-5.99722 -1.73849,-5.99722 -0.17327,0 -0.31503,-0.17717 -0.31503,-0.39371 0,-0.21654 -0.53554,-1.12935 -1.19008,-2.02847 -0.65454,-0.89912 -1.30757,-2.01507 -1.45118,-2.47987 -0.14361,-0.46481 -0.85913,-1.49669 -1.59005,-2.29306 -1.25507,-1.36746 -3.10378,-5.11277 -3.67499,-7.44517 -0.14255,-0.58209 -0.74403,-2.01084 -1.33663,-3.175 -1.05667,-2.07588 -2.04596,-5.77495 -2.04596,-7.65013 0,-1.32392 -5.01764,-11.08492 -6.48295,-12.61152 -1.58124,-1.64738 -3.58769,-5.73836 -3.90432,-7.96057 -0.27078,-1.9004 -0.88233,-3.09835 -3.79553,-7.43503 -2.30255,-3.42765 -10.88026,-20.69626 -11.72733,-23.60942 -0.33851,-1.16417 -1.22322,-3.38667 -1.96602,-4.93889 -1.13213,-2.36577 -1.38967,-3.33572 -1.59239,-5.99722 -0.29954,-3.93272 -0.79247,-5.25901 -5.16603,-13.89994 -1.9247,-3.80267 -4.05826,-8.17659 -4.74124,-9.71982 -0.68298,-1.54323 -1.55005,-3.02179 -1.92681,-3.28568 -1.09078,-0.76401 -2.95383,-3.92249 -5.93846,-10.06764 -2.99251,-6.16137 -5.85168,-10.52522 -8.36592,-12.76859 -1.7811,-1.58922 -2.60568,-2.84717 -4.8611,-7.41598 -1.09644,-2.22106 -2.2735,-3.92643 -3.89582,-5.64444 -1.27858,-1.35399 -2.65893,-3.17618 -3.06745,-4.0493 -0.40852,-0.87313 -1.34694,-2.24669 -2.08538,-3.05237 -1.29606,-1.41406 -1.84388,-2.73552 -2.2704,-5.47675 -0.13414,-0.86211 -0.73792,-1.89342 -1.80022,-3.07496 -0.87956,-0.97828 -2.38978,-3.39611 -3.35814,-5.37629 -0.96786,-1.97917 -2.05028,-4.00857 -2.40538,-4.50976 -1.36242,-1.92295 -3.19911,-5.98222 -3.19911,-7.07035 0,-0.62587 -0.32034,-1.5452 -0.71187,-2.04294 -0.39152,-0.49774 -0.96291,-1.76857 -1.26975,-2.82406 -0.30684,-1.05549 -2.30087,-5.38726 -4.43118,-9.62616 -2.8893,-5.74915 -3.94066,-8.20355 -4.13848,-9.66132 -0.14586,-1.07483 -0.49955,-2.2346 -0.78597,-2.57728 -1.00366,-1.20076 -1.36276,-2.62014 -1.36276,-5.38647 0,-2.38625 -0.12626,-2.97602 -0.87261,-4.07583 -0.47994,-0.70723 -0.97176,-1.86522 -1.09293,-2.57331 -0.12117,-0.70808 -0.65491,-1.92243 -1.18609,-2.69854 -1.85619,-2.71211 -3.19744,-5.85955 -3.21859,-7.55288 -0.014,-1.11888 -0.33631,-2.16448 -1.04296,-3.38323 -0.5625,-0.97014 -1.20469,-2.16077 -1.42708,-2.64584 -0.59143,-1.28999 -1.74307,-5.51323 -1.74307,-6.39208 0,-0.41612 -0.30559,-1.25157 -0.6791,-1.85655 -0.62983,-1.02018 -3.18453,-8.30354 -3.70246,-10.5556 -0.12509,-0.54393 -1.09873,-1.81951 -2.16364,-2.83463 -1.58827,-1.51401 -2.12483,-2.3506 -2.98589,-4.65549 -0.57733,-1.5454 -1.05375,-3.12731 -1.05871,-3.51537 -0.0125,-0.97851 -1.1645,-3.36593 -2.08923,-4.32981 -1.496,-1.55935 -1.82224,-3.04943 -2.02815,-9.2634 -0.20335,-6.13699 0.0326,-8.13478 1.31137,-11.10123 0.86663,-2.01048 3.31802,-4.64009 5.04264,-5.40929 0.8107,-0.36157 2.13033,-1.1974 2.9325,-1.8574 0.80217,-0.65999 1.91342,-1.46022 2.46944,-1.77829 0.55602,-0.31808 2.20158,-1.32663 3.65679,-2.24124 5.45769,-3.43019 5.62128,-3.48117 10.31818,-3.21573 4.74989,0.26844 4.50834,0.34697 8.47307,-2.75461 3.81243,-2.98244 5.32382,-3.73372 7.51124,-3.73372 0.99623,0 2.34742,-0.26744 3.00264,-0.59431 1.95253,-0.97404 4.47472,-1.30056 9.32404,-1.20707 l 4.58611,0.0884 2.68489,-2.5831 c 3.29675,-3.17177 4.91638,-5.48467 4.17099,-5.95635 -0.27823,-0.17607 -0.71604,-0.32255 -0.97289,-0.32552 -1.72346,-0.0199 -14.62934,-4.13245 -20.52327,-6.53983 -7.57838,-3.09539 -9.93383,-3.80002 -15.34584,-4.59067 -5.01655,-0.73288 -7.99966,-1.38427 -10.40196,-2.27137 -1.53502,-0.56683 -2.81192,-0.71725 -6.17361,-0.72721 -4.48229,-0.0133 -7.06356,-0.46234 -9.77521,-1.70055 -0.92342,-0.42166 -2.37047,-0.75633 -3.27021,-0.75633 -1.12923,0 -2.04909,-0.27475 -3.06322,-0.91494 -1.35587,-0.85592 -3.76987,-1.81897 -6.65051,-2.65318 -2.10069,-0.60834 -3.30935,-1.2773 -4.40972,-2.44066 -0.58209,-0.6154 -1.85209,-1.49685 -2.82223,-1.95878 -0.97014,-0.46192 -2.58349,-1.54082 -3.58524,-2.39755 -1.29324,-1.10603 -2.34292,-1.66954 -3.62011,-1.94345 -1.14082,-0.24467 -2.74415,-1.03646 -4.38342,-2.16474 -1.88307,-1.29608 -3.08532,-1.85811 -4.42908,-2.07053 -1.01443,-0.16036 -2.30367,-0.6311 -2.86497,-1.04609 -0.62385,-0.46123 -1.54467,-0.75453 -2.3689,-0.75453 -1.9673,0 -6.29266,-2.67674 -8.56631,-5.30126 -2.36456,-2.72944 -3.68095,-3.51818 -5.8718,-3.51818 -0.95694,0 -1.8907,-0.134 -2.07503,-0.29777 -0.18433,-0.16378 -1.22607,-0.64958 -2.31499,-1.07958 -1.08893,-0.42999 -2.50913,-1.32787 -3.15601,-1.99528 -0.64689,-0.66741 -1.4681,-1.21348 -1.82492,-1.21348 -1.00102,0 -2.36415,-1.01458 -4.73413,-3.52361 -1.66733,-1.76516 -2.60698,-2.44855 -4.05695,-2.95058 -3.95387,-1.36898 -5.47306,-2.37656 -9.65294,-6.4022 -2.96466,-2.85525 -3.78312,-3.31941 -6.93632,-3.93362 -3.90261,-0.76019 -4.91012,-1.30564 -7.23277,-3.91569 -1.07914,-1.21267 -2.18749,-2.20486 -2.46301,-2.20486 -0.78671,0 -3.04028,-1.25842 -3.89557,-2.17534 -1.05726,-1.13345 -1.86892,-3.18231 -1.86892,-4.71769 0,-0.69919 -0.23652,-1.50777 -0.5256,-1.79685 -0.28908,-0.28908 -0.78546,-1.42868 -1.10306,-2.53244 -0.85346,-2.96602 -1.77089,-4.57063 -3.87371,-6.77521 -2.9297,-3.07149 -2.9273,-3.06001 -2.94045,-14.05648 -0.0127,-10.59388 0.24445,-12.58409 2.09667,-16.22901 0.57356,-1.1287 1.37902,-3.14894 1.78991,-4.48944 0.79775,-2.60254 2.94675,-7.19876 4.1673,-8.91287 0.40795,-0.5729 0.74172,-1.13482 0.74172,-1.24871 0,-0.11389 0.56154,-0.94273 1.24786,-1.84186 0.68632,-0.89913 1.53929,-2.21019 1.8955,-2.91347 1.7904,-3.53493 2.40697,-4.55658 3.3317,-5.52058 0.55385,-0.57737 1.37106,-1.84352 1.81601,-2.81366 0.98391,-2.14523 2.37099,-3.50998 4.63812,-4.56347 2.50575,-1.16437 3.93406,-2.5092 4.3651,-4.10997 0.20586,-0.76449 0.85172,-1.93376 1.43526,-2.59837 1.47056,-1.67488 6.44055,-4.07402 8.43961,-4.07402 1.17999,0 2.10306,-0.34032 3.95014,-1.45634 3.68953,-2.22925 9.50028,-4.89317 10.68373,-4.89791 0.58271,-0.002 1.77385,-0.42053 2.64697,-0.92932 1.29982,-0.75743 2.20416,-0.96443 4.99032,-1.14228 2.38773,-0.15241 3.59795,-0.38785 4.05694,-0.78924 1.70714,-1.49288 2.00967,-1.52723 12.47219,-1.4161 l 10.05416,0.10679 4.05695,1.42015 c 2.23132,0.78108 4.61257,1.54104 5.29166,1.68881 2.04734,0.44548 5.7734,2.30634 8.33963,4.16495 3.40971,2.46951 5.49942,3.46765 8.94649,4.27327 5.48849,1.28271 6.02717,1.45287 8.43041,2.66312 2.7227,1.37114 4.43065,3.11144 4.95134,5.04516 0.22727,0.84398 1.01746,1.97661 2.1568,3.09143 1.97901,1.93645 2.80589,3.50983 2.80589,5.33904 0,1.55895 1.04881,1.98739 4.40969,1.80135 1.86213,-0.10308 3.20161,-0.45536 5.44628,-1.43237 1.63724,-0.71262 3.50431,-1.39463 4.14904,-1.51558 0.64473,-0.12096 1.25922,-0.36067 1.36554,-0.5327 0.10633,-0.17203 0.51714,-0.31279 0.91293,-0.31279 0.39579,0 1.21986,-0.22505 1.83126,-0.50011 0.61141,-0.27507 3.55899,-1.32153 6.55019,-2.32549 l 5.43854,-1.82536 6.15588,-0.10886 c 4.72257,-0.0835 6.43545,0.008 7.35661,0.39285 1.56452,0.6537 4.11347,2.60322 6.22419,4.76049 0.92728,0.94773 1.90003,1.72315 2.16166,1.72315 0.26163,0 0.68295,0.24973 0.93626,0.55495 0.25331,0.30522 1.06602,0.86383 1.80602,1.24135 0.74,0.37751 3.29062,2.65019 5.66804,5.05038 3.01505,3.04392 4.90952,4.65643 6.26288,5.33077 1.06715,0.53173 2.54082,1.50614 3.27483,2.16537 0.734,0.65922 2.16826,1.56729 3.18723,2.01793 1.01897,0.45064 2.29475,1.35914 2.83506,2.01888 0.54031,0.65974 1.184,1.4494 1.43044,1.75478 0.24643,0.30539 0.74601,1.05966 1.11019,1.67615 0.36417,0.6165 0.94614,1.21104 1.29326,1.32121 1.12677,0.35763 2.75798,1.97016 3.4992,3.45913 0.39835,0.80021 2.41545,3.16542 4.48244,5.25601 2.91578,2.94906 4.07448,3.88577 5.16929,4.17893 1.08067,0.28937 2.27852,1.24154 5.11528,4.06613 3.24625,3.23233 6.6057,5.98381 6.92102,5.66849 0.0579,-0.0579 0.12589,-9.4967 0.15113,-20.97516 l 0.0459,-20.86991 -1.00138,-1.31315 -1.00138,-1.31315 -0.0481,-8.51263 -0.0481,-8.51264 -1.09845,-2.17602 -1.09845,-2.17602 v -7.97109 c 0,-7.9567 -0.002,-7.97319 -0.881,-9.12615 -0.52522,-0.6886 -0.96966,-1.85442 -1.10055,-2.88688 -0.12075,-0.95251 -0.47779,-2.1287 -0.79343,-2.61377 -0.97418,-1.49715 -1.45835,-2.85229 -1.45835,-4.08178 0,-0.66675 -0.37277,-1.72786 -0.85837,-2.44344 -1.22371,-1.80323 -1.34379,-3.51241 -1.20515,-17.15427 l 0.12324,-12.12746 0.9497,-1.68356 c 0.52234,-0.92596 1.05553,-2.43409 1.18486,-3.35139 0.12933,-0.91731 0.62243,-2.37621 1.09578,-3.242 0.47334,-0.8658 0.95761,-2.29455 1.07615,-3.175 0.35901,-2.66655 2.35386,-6.28143 5.06898,-9.18555 2.29284,-2.45244 5.26481,-7.37861 5.26481,-8.72664 0,-1.30329 3.55601,-5.98844 5.31665,-7.00484 0.30478,-0.17595 0.93978,-1.02615 1.41111,-1.88934 0.47133,-0.86319 1.68455,-2.21256 2.69606,-2.99861 1.0115,-0.78605 2.51962,-2.30191 3.35138,-3.36857 0.83177,-1.06666 1.93727,-2.35967 2.45669,-2.87336 0.51941,-0.51368 1.29673,-1.75301 1.72737,-2.75406 0.59293,-1.37831 1.30497,-2.22219 2.93345,-3.47664 1.18276,-0.9111 2.70732,-1.95038 3.38791,-2.3095 0.68059,-0.35912 1.95181,-1.24039 2.82494,-1.95839 0.87312,-0.71799 2.2225,-1.59393 2.99861,-1.94653 0.77611,-0.3526 2.91923,-1.62432 4.7625,-2.82605 1.84326,-1.20173 4.30389,-2.79199 5.46805,-3.53391 1.16417,-0.74192 3.38667,-2.57314 4.93889,-4.06938 1.55222,-1.49624 3.61597,-3.1728 4.58611,-3.72569 4.29245,-2.44631 8.27703,-4.12948 10.87605,-4.59428 0.74307,-0.13289 2.63058,-1.0883 4.19447,-2.12314 1.94539,-1.28728 3.35708,-1.9563 4.46979,-2.11829 0.8945,-0.13023 2.27856,-0.61478 3.07569,-1.07679 1.30165,-0.75442 1.96367,-0.85412 6.49698,-0.97843 5.98221,-0.16404 6.64713,0.0447 9.40877,2.95343 2.18712,2.30362 2.01282,1.94519 4.38208,9.01151 l 1.89253,5.64444 0.003,15.2031 c 0.002,11.16209 -0.1098,15.42858 -0.42195,16.05139 -1.59032,3.17306 -1.63269,3.4555 -1.6885,11.25524 -0.0551,7.70262 -0.20814,8.72816 -1.54018,10.32225 -0.76111,0.91085 -0.67665,20.9338 0.0946,22.42522 0.84118,1.62666 1.62846,5.61005 1.53404,7.7618 -0.0723,1.64738 0.11162,2.40517 1.04195,4.29351 2.84098,5.76645 3.00759,6.92125 3.24603,22.49887 l 0.20668,13.50304 1.41111,-1.7942 c 0.77611,-0.98681 1.72861,-2.20253 2.116661,-2.7016 3.95898,-5.09153 6.55752,-7.97747 12.48623,-13.86722 3.80857,-3.78355 7.16342,-7.19667 7.45523,-7.58473 0.2918,-0.38805 1.4806,-1.97555 2.64177,-3.52777 3.02279,-4.04079 5.55226,-6.87917 6.13047,-6.87917 0.15462,0 0.58354,-0.33809 0.95316,-0.75132 0.63481,-0.70969 1.14197,-1.08472 4.54603,-3.36168 0.7725,-0.51672 3.02766,-2.56654 5.01146,-4.55516 2.18947,-2.19478 4.96475,-4.519 7.06212,-5.91432 8.72755,-5.80618 9.4639,-6.40024 15.62604,-12.60647 2.61937,-2.63813 5.3975,-5.22445 6.17361,-5.74738 4.48807,-3.024 6.19158,-4.44281 9.50202,-7.91399 1.87601,-1.9671 3.41546,-3.22668 4.66763,-3.81905 1.07394,-0.50805 2.11964,-1.30923 2.4593,-1.88422 0.325,-0.55018 1.32019,-1.45252 2.21153,-2.0052 0.89135,-0.55267 2.34882,-1.74733 3.2388196,-2.6548 1.23982,-1.26414 2.10594,-1.79044 3.70417,-2.25082 1.14728,-0.33049 2.80035,-0.95675 3.67347,-1.39169 1.43334002,-0.714 2.25556002,-0.80818 8.46667,-0.9698 7.5782604,-0.1972 7.4674304,-0.21942 11.0858604,2.22262 2.70505,1.82562 3.41037,3.05122 3.79494,6.59431 0.18436,1.69848 0.53905,3.48501 0.7882,3.97008 0.24916,0.48507 1.50869,2.9333 2.79895,5.44051 1.29027,2.50722 2.34594,4.98289 2.34594,5.50149 0,0.51861 0.3136,1.88038 0.69688,3.02616 0.38329,1.14577 0.70177,2.32135 0.70773,2.61239 0.006,0.29105 0.27325,1.00542 0.59396,1.5875 0.49396,0.89653 0.5861,2.32583 0.60269,9.34862 l 0.0196,8.29027 -1.14363,3.29735 c -1.01726,2.93301 -2.48381,6.15808 -4.51635,9.93182 -0.50137,0.9309 -0.64407,1.83442 -0.5799,3.67182 0.13461,3.85399 -1.22202,7.54738 -4.37015,11.89767 -0.65066,0.89912 -1.18302,1.7987 -1.18302,1.99907 0,0.20037 -0.12532,0.41723 -0.27849,0.4819 -0.44547,0.1881 -2.3583,3.47522 -3.88901,6.68311 -0.77669,1.62772 -2.1638,5.26136 -3.08246,8.07476 -0.9186604,2.81341 -1.8857304,5.61552 -2.1490504,6.22693 -0.26332,0.61141 -0.47877,1.41309 -0.47877,1.78153 0,0.36843 -0.14964,0.82069 -0.33255,1.00502 -0.1829,0.18432 -0.49206,0.97014 -0.68704,1.74625 -1.04007,4.14018 -2.92003,9.15779 -5.15484,13.75833 -1.23453998,2.54139 -1.62058998,3.80942 -1.93449998,6.35408 -0.55647,4.51101 -1.64338002,7.32032 -4.08968002,10.57052 -2.06176,2.7393 -2.08181,2.78893 -2.19864,5.44356 -0.11436,2.59838 -0.22472,2.89154 -3.6649296,9.73462 -2.08563,4.14863 -4.0934,7.65212 -4.87318,8.5035 -0.72939,0.79638 -1.44057,1.82825 -1.58041,2.29306 -0.35205,1.17019 -2.8644,4.34092 -5.81447,7.33818 -1.36295,1.38476 -2.47809,2.74342 -2.47809,3.01925 0,1.59351 -2.65615,4.24453 -6.55173,6.53906 -0.82353,0.48507 -1.83039,1.18524 -2.23745,1.55593 -0.73839,0.67241 -3.55805,5.30588 -3.55805,5.84685 0,0.15689 -0.59531,0.77107 -1.32291,1.36486 -1.62528,1.32636 -2.0414,1.73154 -4.85364,4.72612 -1.22994,1.30968 -2.31925,2.38125 -2.42067,2.38125 -0.79995,0 -5.12125,3.02753 -7.27778,5.09886 -2.98166,2.86387 -3.92125,3.51849 -5.56987,3.88059 -0.63239,0.1389 -1.58257,0.60895 -2.1115,1.04456 -0.52892,0.43561 -1.24759,0.89653 -1.59704,1.02428 -0.34944,0.12774 -0.93485,0.90932 -1.3009,1.73683 -0.36604,0.82751 -1.15647,1.97492 -1.75651,2.54979 -0.60003,0.57486 -1.91963,2.54857 -2.93243,4.38602 -1.01281,1.83744 -2.11719,3.82084 -2.45417,4.40755 -0.91781,1.59794 -4.87771,5.48753 -6.12785,6.01903 -0.9009,0.38302 -1.42679,1.14832 -2.95304,4.29744 -2.62636,5.41898 -3.5261,7.23172 -4.09044,8.24116 -0.27119,0.48507 -0.49541,1.2346 -0.49827,1.66563 -0.003,0.43103 -0.39602,1.6674 -0.87369,2.74749 -0.47766,1.08009 -0.9729,2.55305 -1.10053,3.27325 -0.12762,0.7202 -0.60338,2.06352 -1.05723,2.98515 l -0.82519,1.6757 24.06253,0.021 c 13.23439,0.0116 24.80122,0.14281 25.70406,0.29167 1.80273,0.29721 5.98951,2.6556 7.43241,4.18663 0.50213,0.5328 1.2628,1.7222 1.69038,2.64311 0.46604,1.00374 2.12746,3.05259 4.148,5.11528 2.20427,2.25027 3.64254,4.05124 4.15656,5.20478 0.45374,1.01825 1.80889,2.81285 3.20578,4.24534 1.45648,1.49361 2.61289,3.03843 2.90486,3.88056 0.28237,0.81443 1.47048,2.43106 2.84309,3.86854 1.29691,1.3582 2.9424796,3.50132 3.6568196,4.7625 0.71435,1.26118 1.77307,2.92806 2.35273,3.70417 0.57965,0.77611 1.49391,2.19183 2.0317,3.14603 0.53779,0.95421 1.56608,2.39309 2.2851,3.19751 0.71901,0.80442 1.62108002,2.16683 2.00461002,3.02758 0.38352,0.86074 1.20006998,2.12062 1.81455998,2.79971 3.80355,4.20351 4.57492,5.45158 4.57492,7.40219 0,0.9673 1.1318,2.93706 2.63866,4.59226 1.0861104,1.19302 1.6859904,2.40246 1.9247804,3.88055 0.1589,0.98366 0.46312,1.36364 1.49614,1.8687 2.36063,1.15417 5.36538,5.32395 5.9005,8.18829 0.24971,1.33664 0.69377,2.05419 2.26035,3.65253 1.42313,1.45197 2.38096,2.91278 3.54707,5.40971 0.87861,1.88133 2.16161,4.24071 2.8511,5.24306 0.68949,1.00234 1.25362,2.00755 1.25362,2.23378 0,0.22624 0.55761,1.57488 1.23914,2.99698 1.49815,3.12612 2.41192,6.91663 2.19394,9.10092 -0.15999,1.60318 0.20651,3.88261 0.84042,5.22687 0.18299,0.38805 1.37418,3.7218 2.64708,7.40833 2.86056,8.28463 3.08853,9.98233 2.83136,21.08599 -0.17883,7.72142 -0.13649,8.60206 0.53431,11.1125 0.4007,1.49958 0.89988,3.44089 1.10928,4.31401 0.26531,1.10619 0.40754,25.83902 0.46912,81.57625 l 0.0884,79.98875 0.99085,1.29826 c 0.97703,1.28016 0.99207,1.37487 1.07866,6.79458 0.0807,5.05149 0.15696,5.62482 0.94217,7.08383 0.69604,1.29332 0.89508,2.30661 1.07407,5.46806 0.21687,3.8302 0.52302,5.52055 1.43761,7.9375 0.25698,0.6791 0.56885,2.66347 0.69305,4.40972 0.13695,1.92536 0.4188,3.38836 0.71613,3.71708 0.88504,0.9785 1.57554,3.10865 1.57554,4.86045 0,0.94656 0.26505,2.25232 0.589,2.90168 0.99881,2.00216 1.28687,3.86071 1.36479,8.80551 0.0716,4.54143 0.12758,4.87571 1.20684,7.20116 l 1.1318,2.43866 -0.0879,21.02107 c -0.0617,14.75934 0.0282,21.28377 0.30198,21.903 0.21444,0.48507 0.73703,2.70757 1.16132,4.93889 0.70307,3.69743 0.75041,4.71796 0.53422,11.5162 -0.22418,7.04971 -0.19606,7.57268 0.51224,9.525 1.71812,4.73579 1.74769,5.22735 1.74171,28.9608 -0.004,17.29015 0.0945,22.51082 0.43784,23.11916 0.73831,1.30824 1.41205,4.17433 1.58658,6.74935 0.12637,1.86433 0.38541,2.76853 1.10415,3.85403 l 0.93906,1.41824 0.10244,11.05084 0.10244,11.05083 h 1.3347 c 1.48943,0 7.31325,0.8922 9.22014,1.41251 3.28304,0.8958 6.24218,1.80071 6.87917,2.10366 3.28388,1.56181 7.85102,3.2418 9.56344,3.51786 1.14302,0.18426 2.55447,0.42858 3.13656,0.54292 0.58208,0.11434 1.93146,0.37847 2.99861,0.58696 2.22971,0.43561 4.19581,1.1291 9.877779,3.48408 2.23132,0.924809 5.16819,2.041439 6.52639,2.481419 1.35819,0.43997 2.78694,0.91247 3.175,1.05 0.38805,0.13752 1.98151,0.65784 3.54102,1.15626 1.55951,0.49841 3.54389,1.31112 4.40973,1.80602 1.52807,0.87342 1.7626,0.89993 7.99584,0.90406 6.88806,0.005 7.60614,0.14588 9.45341,1.86044 0.58208,0.54027 1.45521,1.07291 1.94027,1.18365 0.48507,0.11075 1.3582,0.40584 1.94028,0.65577 0.58209,0.24992 1.6614,0.64677 2.39848,0.88189 0.77996,0.24879 2.03136,1.15098 2.99374,2.15832 1.45198,1.519817 1.82915,1.730846 3.0935,1.730846 1.38697,0 11.21978,3.0277 13.26123,4.083374 0.54709,0.282913 1.34803,0.99227 1.77985,1.576349 0.43183,0.58408 1.50621,1.478282 2.38751,1.987116 2.33808,1.349934 5.84914,4.51365 6.34932,5.721198 0.2381,0.574835 0.69182,1.144505 1.00826,1.265934 1.33471,0.512177 3.94337,2.754059 8.21669,7.061431 3.21812,3.24376 4.81006,5.136142 5.44008,6.466746 0.50107,1.058279 1.86382,2.854247 3.11554,4.105965 1.22369,1.223694 2.41818,2.691537 2.65443,3.261873 0.23624,0.570337 0.50041,2.691597 0.58704,4.713912 0.12382,2.890366 0.38209,4.318398 1.20732,6.675547 1.00964,2.883918 1.05017,3.236999 1.05966,9.23117 0.0113,7.179817 0.0495,7.054023 -5.0999,16.824234 -0.34337,0.651513 -1.70404,2.2815568 -3.02369,3.6223188 -2.41002,2.448583 -2.90006,3.371235 -3.34901,6.305611 -0.22292,1.45706601 -0.59019,1.92083001 -4.46993,5.6444444 -2.6367,2.5305897 -4.54297,4.6780025 -5.06674,5.7076732 -0.46182,0.9079006 -0.98797,1.7423746 -1.16921,1.8543856 -0.18123,0.112012 -0.75503,1.317196 -1.27509,2.678186 -0.75428,1.973915 -1.29561,2.769684 -2.6758,3.933476 -0.95162,0.802421 -1.73022,1.756696 -1.73022,2.120611 0,1.706137 -2.28943,5.225113 -3.39944,5.225113 -0.24486,0 -0.88985,0.595313 -1.4333,1.322917 -0.54345,0.727604 -1.38115,1.640417 -1.86155,2.028472 -0.4804,0.388056 -1.66335,1.470865 -2.62878,2.406242 -2.75702,2.671196 -5.1158,3.318559 -7.88136,2.163032 -2.69771,-1.127174 -3.96295,-3.082978 -3.96092,-6.122779 0.002,-2.386042 0.54038,-3.363745 3.59769,-6.528522 3.90925,-4.046654 5.22044,-5.508878 5.22044,-5.82179 0,-0.616739 2.85733,-5.1779898 3.88674,-6.2045167 1.06942,-1.0664294 3.97395,-5.4465085 4.91263,-7.4083335 0.27852,-0.58208299 1.97451,-2.498333 3.76888,-4.258333 3.1089,-3.04935 3.31182,-3.34236 4.31026,-6.223909 1.39983,-4.0399818 1.39344,-4.0301318 4.27721,-6.5930788 2.07066,-1.840288 2.79386,-2.789323 4.0857,-5.361532 l 1.56969,-3.125438 -0.011,-4.681355 c -0.0102,-4.312844 -0.082,-4.820206 -0.91224,-6.445243 -0.69228,-1.354976 -0.95614,-2.540825 -1.13817,-5.115278 -0.1839,-2.600955 -0.39435,-3.536414 -0.93984,-4.177695 -0.38659,-0.454469 -1.1367,-1.327594 -1.66692,-1.940278 -0.53021,-0.612685 -1.34454,-1.907722 -1.80961,-2.877861 -1.15368,-2.406573 -7.32537,-8.379605 -9.85485,-9.53764 -2.17305,-0.994855 -3.47665,-2.250408 -4.57537,-4.406725 -0.61184,-1.200769 -1.2212,-1.766528 -2.72808,-2.532862 -1.06716,-0.542706 -2.45956,-1.534974 -3.09422,-2.205039 -0.77667,-0.819985 -1.81472,-1.412585 -3.175,-1.812547 -1.11159,-0.326837 -2.49731,-0.796768 -3.07939,-1.044292 -0.62887,-0.267418 -1.72981,-0.372874 -2.71304,-0.259873 -2.1691,0.24929 -3.00306,0.01062 -5.16902,-1.479295 -0.99128,-0.68188 -1.9394,-1.239783 -2.10694,-1.239783 -0.16754,0 -0.87757,-0.619259 -1.57786,-1.376132 -0.9935,-1.07378 -1.83917,-1.547217 -3.84903,-2.154814 -1.41668,-0.428275 -3.15239,-1.167017 -3.85713,-1.64165 -1.20599,-0.812215 -1.54832,-0.860119 -5.82083,-0.814529 -5.36675,0.05727 -7.88496,-0.332419 -10.08484,-1.560596 -1.83062,-1.022028 -3.64405,-1.705024 -9.44771,-3.558323 -2.23132,-0.712534 -5.88257,-2.065745 -8.11388,-3.007135 -5.430109,-2.29095 -7.011709,-2.803 -10.567019,-3.42106 -6.3631,-1.10619 -7.42322,-1.41907 -12.92442,-3.81446 -3.90522,-1.70045 -7.83656,-2.85428 -10.98652,-3.2245 l -1.85816,-0.21839 v 3.21414 c 0,2.38372 0.17219,3.60393 0.66648,4.72287 1.27076,2.87672 1.45019,4.68257 1.45019,14.595651 v 9.72539 l -1.05178,2.396389 c -0.6908,1.573919 -1.13099,3.289299 -1.28257,4.998019 -0.23838,2.687242 -0.4483,3.253309 -2.86183,7.716908 -0.78685,1.455209 -1.86515,3.915834 -2.39621,5.468056 -1.10259,3.222678 -1.65258,4.494398 -4.2472,9.820554 -1.80247,3.700054 -2.0493,4.013287 -7.65504,9.714496 -4.64367,4.722751 -6.0948,5.990924 -7.3166,6.394156 -0.83824,0.276645 -2.16983,1.042499 -2.95908,1.701898 -1.99255,1.664728 -2.58593,1.825841 -6.72465,1.825841 -3.39483,0 -4.45596,0.181358 -8.61909,1.47309 -0.65626,0.203626 -4.82375,0.493961 -9.26109,0.645191 -7.8079804,0.266104 -8.1492404,0.249171 -10.59303038,-0.525639 -1.38883,-0.440331 -3.02303002,-1.197883 -3.63157002,-1.683449 -1.01005,-0.805934 -3.08856,-4.513045 -4.57881,-8.166471 -0.30917,-0.757961 -1.72372,-3.139211 -3.1434496,-5.291667 -1.41972,-2.152455 -2.95098,-4.529035 -3.4028,-5.281288 -0.5262,-0.876108 -1.34049,-1.597319 -2.26541,-2.006453 -2.10834,-0.932619 -3.23981,-2.307355 -4.60642,-5.596807 -0.66858,-1.609291 -1.46035,-3.299517 -1.75949,-3.756056 -0.29914,-0.45654 -0.54388,-1.367638 -0.54388,-2.024664 0,-0.657025 -0.4187,-1.972298 -0.93043,-2.922829 -1.28872,-2.39375 -1.88923,-5.893034 -1.90087,-11.076848 -0.01,-4.343312 -0.0254,-4.428317 -1.03523,-5.644444 l -1.02532,-1.234723 -0.72133,1.587501 c -0.45351,0.99808 -0.73093,2.373392 -0.74719,3.704166 -0.0385,3.147596 -0.54013,6.399387 -1.41505,9.172223 -0.65753,2.083873 -0.79138,3.405831 -0.8573,8.466666 -0.0851,6.536474 -0.36147,8.466891 -1.53408,10.716597 -2.35098,4.510459 -2.65309,5.649962 -2.56785,9.68552 0.0734,3.473051 -0.0222,4.132572 -1.04745,7.231944 l -1.12818,3.410384 0.0386,13.0136878 c 0.0212,7.1575276 0.12791,13.2949962 0.23703,13.6388182 0.10913,0.343822 0.76509,1.057359 1.4577,1.585638 2.36138,1.801111 2.57711,2.806954 2.58585,12.056659 0.008,8.103499 -0.002,8.214054 -0.92058,10.230556 -0.51058,1.121192 -1.04896,2.673531 -1.19639,3.449642 -0.42007,2.211227 -1.73293,5.533837 -2.68022,6.783107 -0.47487,0.626265 -1.61209,1.566305 -2.52715,2.088978 -0.91506,0.522673 -2.32318,1.476843 -3.12915,2.120377 -0.80598,0.643535 -1.88788,1.330682 -2.40422,1.526995 -1.39012,0.528522 -14.62417,0.400235 -15.6219,-0.151435 z m 81.58851,-79.110039 c 2.03663,-0.549106 4.78318,-1.005988 6.5183,-1.084303 2.21877,-0.100145 3.1821,-0.296966 3.70417,-0.756806 0.63317,-0.557708 3.01579,-1.796042 3.45568,-1.796042 0.0957,0 1.96416,-1.815279 4.15206,-4.033954 4.28334,-4.34358 5.91941,-6.975493 7.89596,-12.702084 1.20416,-3.488741 2.0773,-5.534491 3.62257,-8.487573 0.71071,-1.358195 1.41243,-3.263195 1.55939,-4.233333 0.51418,-3.394409 0.89579,-4.951436 1.59954,-6.526389 0.65411,-1.463849 0.70102,-2.200929 0.60231,-9.463011 l -0.10705,-7.87551 -1.07148,-2.267791 c -1.03929,-2.19966 -1.07148,-2.42084 -1.07148,-7.36197 0,-4.37535 -0.0952,-5.258799 -0.67492,-6.260859 -1.11376,-1.92529 -1.44175,-5.70643 -1.44175,-16.62072 0,-9.51641 -0.0537,-10.44998 -0.64551,-11.22131 -1.11714,-1.45603 -1.25768,-2.13361 -1.45501,-7.01494 -0.17039,-4.21476 -0.29397,-4.94508 -1.07448,-6.35 l -0.88195,-1.5875 -0.0695,-23.45972 c -0.0382,-12.90285 -0.16321,-23.96886 -0.27773,-24.59114 -0.11453,-0.62227 -0.55913,-1.89227 -0.98801,-2.82222 -0.7402,-1.60499 -0.78159,-2.17426 -0.81548,-11.21581 -0.0318,-8.48228 -0.12186,-9.91119 -0.82264,-13.05278 -1.33596,-5.98899 -1.45192,-8.2472 -1.39556,-27.17731 0.0471,-15.81597 -0.0197,-18.50255 -0.48219,-19.40278 -1.16964,-2.27659 -1.70981,-5.53017 -1.6377,-9.86435 0.0682,-4.097 0.0346,-4.30719 -1.04163,-6.52639 -0.6321,-1.30339 -1.11217,-2.85504 -1.11233,-3.59516 -1.6e-4,-0.71615 -0.14898,-1.39399 -0.33072,-1.50631 -0.90037,-0.55646 -1.44671,-2.65139 -1.65079,-6.32999 -0.1931,-3.48049 -0.85569,-6.68977 -1.92233,-9.31084 -0.18138,-0.44569 -0.32977,-2.16367 -0.32977,-3.81773 0,-2.56361 -0.1289,-3.22733 -0.87348,-4.49787 -0.77825,-1.32797 -0.89968,-2.04638 -1.11383,-6.5892 -0.21696,-4.60242 -0.32633,-5.23559 -1.12364,-6.50468 -0.85821,-1.36603 -0.88806,-1.62934 -1.05161,-9.27609 l -0.16832,-7.87015 -0.74498,0.68268 c -0.40974,0.37548 -2.33248,1.70822 -4.27276,2.96165 -1.94027,1.25343 -3.83019,2.62015 -4.19981,3.03716 -0.36962,0.417 -0.80395,0.75819 -0.96518,0.75819 -0.25011,0 -5.29472,2.44346 -9.7558804,4.72546 -1.66313,0.85073 -3.23386,1.27801 -5.89302,1.60305 -1.16415998,0.1423 -2.83104,0.59874 -3.70416,1.01431 -0.87313,0.41556 -1.82725,0.75906 -2.12027,0.76332 -0.29303,0.004 -0.92944,0.36494 -1.41425,0.8015 -2.57916,2.32248 -4.5366596,3.57255 -9.3418696,5.96579 -8.90582,4.43555 -8.35093,4.28976 -15.61691,4.10304 -5.53829,-0.14232 -6.43729,-0.2499 -7.84282,-0.93857 -4.20783,-2.0617 -5.18212,-7.13556 -2.00394,-10.43599 1.95243,-2.02753 3.78602,-2.59338 6.55222,-2.02203 1.11132,0.22954 3.17117,0.41734 4.57745,0.41734 2.46225,0 2.74865,-0.0946 7.73987,-2.55763 4.35117,-2.14716 5.52273,-2.90232 7.29968,-4.70524 2.19424,-2.22629 4.03924,-3.32046 5.5990196,-3.32046 0.49845,0 1.84347,-0.47625 2.98893,-1.05833 1.67055,-0.84891 2.52967,-1.05834 4.34163,-1.05834 2.10153002,0 2.60249002,-0.17448 7.1883,-2.50371 2.71114,-1.37704 5.2468504,-2.7859 5.6349004,-3.1308 0.38806,-0.34491 1.77712,-1.29622 3.08681,-2.11403 1.30969,-0.81781 2.38125,-1.69488 2.38125,-1.94905 0,-0.25416 0.635,-1.30722 1.41111,-2.34013 0.93365,-1.24257 1.41111,-2.24529 1.41111,-2.96348 0,-0.597 0.13531,-1.23627 0.30069,-1.4206 0.58774,-0.65509 4.88875,-9.17796 5.3319,-10.5657 0.24783,-0.77611 0.77003,-1.99224 1.16043,-2.70252 l 0.70982,-1.29141 -0.9292,-1.86466 c -1.58127,-3.17321 -1.22058,-9.17498 0.67744,-11.27227 0.45494,-0.50271 0.52214,-7.14865 0.52725,-52.14726 0.006,-50.29261 -0.0114,-51.62988 -0.68955,-53.94095 -1.32244,-4.50665 -1.49951,-6.61624 -1.4255,-16.98282 0.0678,-9.4901 0.0279,-10.2056 -0.67928,-12.19811 -0.41319,-1.16417 -0.89912,-2.43417 -1.07985,-2.82222 -0.18072,-0.38806 -0.91758,-2.45181 -1.63746,-4.58611 -0.71988,-2.13431 -1.43925,-4.13717 -1.59859,-4.4508 -0.59644,-1.17398 -1.38237,-5.94777 -1.33634,-8.11708 0.0392,-1.8474 -0.14879,-2.66418 -1.05314,-4.57601 -0.60546,-1.27997 -1.10084,-2.48646 -1.10084,-2.6811 0,-0.19463 -0.48662,-1.02563 -1.08137,-1.84665 -0.59475,-0.82103 -1.69294,-2.78954 -2.44041,-4.37446 -0.92369,-1.95855 -2.05353,-3.61625 -3.5269404,-5.17474 -2.32466,-2.45889 -3.51442,-4.51729 -3.52687,-6.10182 -0.006,-0.7399 -0.28537,-1.13679 -1.1182,-1.5875 -1.46762,-0.79425 -3.47566,-2.51907 -3.47566,-2.98545 0,-0.20412 -0.36040998,-0.86236 -0.80091998,-1.46276 -0.97345,-1.32678 -1.54108002,-2.52341 -1.83479002,-3.8679 -0.12164,-0.55681 -0.67612,-1.58869 -1.23219,-2.29306 -1.40872,-1.78442 -3.54043,-5.94011 -3.54043,-6.90193 0,-0.48132 -0.80829,-1.68552 -2.02847,-3.02202 -1.11566,-1.22202 -2.3231496,-2.87283 -2.6832996,-3.66846 -0.36015,-0.79563 -1.10595,-1.92285 -1.65733,-2.50493 -0.55138,-0.58208 -1.52671,-2.03092 -2.1674,-3.21963 -0.64069,-1.18871 -1.52253,-2.61746 -1.95964,-3.175 -1.15925,-1.47864 -3.61497,-5.39472 -3.61497,-5.76473 0,-0.17462 -1.27721,-1.47895 -2.83825,-2.89851 -2.7108,-2.46513 -3.54236,-3.62267 -4.00834,-5.57963 -0.1155,-0.48507 -1.16701,-1.88033 -2.33669,-3.10057 -1.16968,-1.22025 -2.49553,-3.04588 -2.94633,-4.05695 -0.53272,-1.19479 -1.61108,-2.57928 -3.08047,-3.95498 -2.83279,-2.65216 -4.49665,-4.62162 -5.105,-6.04263 -0.25989,-0.60706 -0.72955,-1.20237 -1.04369,-1.32292 -0.31414,-0.12054 -12.42474,-0.22266 -26.91245,-0.22692 -30.34605,-0.009 -27.49711,0.32866 -31.715694,-3.75813 -4.3919,-4.2547 -5.15467,-7.82559 -2.37679,-11.12692 0.47962,-0.56998 0.87203,-1.34724 0.87203,-1.72724 0,-0.61119 0.86498,-2.30222 1.42341,-2.78274 0.606834,-0.52217 1.399094,-2.01291 1.400984,-2.63613 0.001,-0.3934 0.25347,-1.19151 0.56061,-1.77359 0.30714,-0.58209 0.84788,-2.16959 1.20165,-3.52778 0.77424,-2.9725 8.73817,-18.92011 10.06017,-20.1453 0.49706,-0.46066 1.65143,-1.1641 2.56527,-1.56319 2.09025,-0.91288 2.54032,-1.51329 5.80823,-7.74846 0.76269,-1.4552 1.90286,-3.20145 2.53371,-3.88055 0.63086,-0.6791 1.35584,-1.79035 1.61108,-2.46945 0.25524,-0.67909 0.87532,-1.68494 1.37795,-2.23521 1.1593,-1.26918 6.34606,-4.67796 8.73047,-5.73775 1.07711,-0.47874 2.58459,-1.60867 3.69506,-2.76964 1.08067,-1.12981 3.1755,-2.71115 4.94231,-3.73084 2.6685,-1.54008 3.20791,-2.02022 4.15505,-3.69845 0.662,-1.17299 1.62658,-2.26832 2.46197,-2.79568 0.86338,-0.54503 1.97091,-1.824 2.9819,-3.4435 1.92318,-3.08074 4.57178,-5.71898 7.47185,-7.44265 1.57412,-0.93558 2.28202,-1.61469 2.72151,-2.61082 0.3267,-0.74048 2.12747,-2.91764 4.00172,-4.83813 1.98139,-2.03029 3.6907,-4.13155 4.08381,-5.02025 0.37186,-0.84064 1.29431,-2.24272 2.04989,-3.11573 2.02252,-2.33684 6.35862,-11.16964 6.35862,-12.95275 0,-2.47474 1.39952,-6.27614 3.32174,-9.02258 2.60651,-3.72414 2.74586,-4.08678 3.21333,-8.36235 0.40721,-3.72443 0.51709,-4.06612 2.55598,-7.94867 1.6979696,-3.23333 2.9379296,-6.52778 6.1077796,-16.22778 4.62801002,-14.16206 4.33975002,-13.42724 8.37264,-21.34305 0.29655,-0.58208 1.26586,-2.13958 2.154,-3.4611 3.73933,-5.56396 3.9048204,-5.9105 3.9067004,-8.18057 0.003,-3.3716 0.90232,-6.89139 2.46677,-9.6522 3.78887,-6.68627 4.29157,-8.7077 3.91631,-15.7478 -0.20759,-3.89443 -0.49033,-5.94371 -1.07079,-7.76111 -0.4338,-1.35819 -0.92356,-3.11851 -1.08835,-3.91182 -0.29474,-1.4188 -2.88156,-6.89786 -4.3989904,-9.31735 -0.42591,-0.67909 -0.89209,-1.8668 -1.03595,-2.63934 -0.46574,-2.50101 -0.65551,-2.65232 -3.32643,-2.65232 -4.06279,0 -6.51527998,1.30656 -11.28785,6.01363 -1.28789,1.27021 -3.1308,2.6766 -4.09536,3.12531 -1.0544496,0.49052 -2.8183396,1.89067 -4.4235896,3.51136 -1.4684,1.48254 -3.13984,3.04884 -3.7143,3.48066 -0.57446,0.43182 -2.63197,1.96492 -4.57225,3.40688 -1.94028,1.44197 -5.27403,4.42569 -7.40833,6.6305 -2.13431,2.20481 -4.29853,4.32296 -4.80939,4.70701 -0.51085,0.38404 -2.54171,1.92857 -4.51302,3.43229 -1.97131,1.50371 -3.66129,2.73402 -3.75552,2.73402 -0.72376,0 -6.53797,4.52505 -8.97068,6.98164 -1.64924,1.66543 -4.74487,4.32911 -6.87917,5.91928 -4.23488,3.15521 -5.64394,4.52165 -7.98341,7.74189 -2.912,4.00833 -4.37987,5.63281 -11.46073,12.68354 -3.9033,3.88669 -7.63393,7.79639 -8.29028,8.68821 -1.84199,2.50284 -5.81275,7.56846 -10.91863,13.92923 -5.726014,7.1333 -5.973344,7.50743 -5.973344,9.03558 0,2.37031 -1.57265,4.74171 -3.9547,5.9633 -2.91165,1.49318 -6.68687,0.35877 -8.48918,-2.55092 l -0.97859,-1.57986 -0.0797,-25.90942 -0.0797,-25.90941 -1.18403,-2.46944 c -2.05543,-4.28688 -2.87291,-7.10615 -2.87291,-9.9079 0,-2.10349 -0.18607,-2.9457 -1.05805,-4.7889 l -1.05806,-2.23654 0.002,-11.46528 c 0.002,-11.9454 0.27742,-15.26031 1.42804,-17.21808 0.61488,-1.04622 0.68568,-1.8676 0.68568,-7.95445 0,-6.6298 0.0245,-6.85715 1.05138,-9.76942 l 1.05137,-2.98166 0.0576,-12.52361 0.0576,-12.52361 -0.96079,-2.88152 c -1.40151,-4.20327 -1.51159,-4.30624 -3.32241,-3.1079 -0.96394,0.6379 -2.12267,1.04083 -3.32335,1.15562 -1.0658,0.1019 -2.39851,0.52615 -3.15932,1.00572 -0.72374,0.45621 -1.41361,0.82947 -1.53304,0.82947 -0.11942,0 -0.65253,0.31003 -1.18468,0.68895 -0.53215,0.37893 -2.11378,0.92795 -3.51473,1.22006 -4.07172,0.84898 -7.54506,2.72305 -10.79609,5.82513 -1.55222,1.48111 -3.69534,3.25549 -4.7625,3.94306 -1.06715,0.68758 -3.6833,2.42091 -5.81367,3.85184 -2.13036,1.43093 -4.74974,3.03492 -5.82083,3.56441 -1.07109,0.5295 -2.42369,1.38661 -3.00577,1.90471 -0.58209,0.51809 -1.61396,1.22788 -2.29306,1.5773 -1.60387,0.82526 -3.175,2.29553 -3.175,2.97118 0,0.2932 -0.92054,1.5311 -2.04565,2.75087 -1.12511,1.21977 -2.65652,3.09089 -3.40313,4.15804 -0.74662,1.06716 -2.16764,2.73407 -3.15783,3.70425 -0.99018,0.97018 -2.06803,2.27511 -2.39522,2.89985 -0.32719,0.62474 -1.38895,1.62447 -2.35946,2.22163 -1.3024,0.80138 -1.87508,1.42065 -2.18656,2.36444 -0.23211,0.70328 -1.28868,2.95789 -2.34794,5.01024 -1.43121,2.773 -2.54942,4.37645 -4.35314,6.24214 -2.52046,2.60706 -3.15107,3.69752 -3.15107,5.44892 0,0.56894 -0.47625,2.04241 -1.05833,3.2744 -0.58209,1.23198 -1.05834,2.67778 -1.05834,3.2129 0,0.53511 -0.39687,1.7631 -0.88194,2.72885 -0.8779,1.74786 -0.88195,1.80118 -0.88195,11.62824 v 9.87233 l 0.89393,1.172 c 0.58434,0.76611 0.96722,1.82697 1.10559,3.06326 0.11641,1.0402 0.42247,2.13521 0.68012,2.43336 0.78407,0.90729 1.5537,3.06933 1.5537,4.36466 0,0.67387 0.14869,1.31713 0.33044,1.42945 0.18174,0.11232 0.60345,0.717 0.93713,1.34374 0.5128,0.96317 0.63146,2.50432 0.76679,9.95896 0.12779,7.0396 0.27042,9.03302 0.70676,9.87777 1.02003,1.97484 1.49137,5.83403 1.49179,12.2146 4.1e-4,6.13004 0.014,6.24153 0.97056,7.9375 l 0.97014,1.72013 0.10437,30.76124 0.10437,30.76125 -0.87861,1.39181 c -1.17506,1.86142 -2.46065,2.71373 -4.83263,3.20392 -1.9451,0.40197 -2.30555,0.36472 -5.96278,-0.6163 -3.12907,-0.83935 -4.88699,-2.37079 -5.74005,-5.00053 -0.53757,-1.6572 -0.93076,-2.00851 -7.23024,-6.46 -1.32121,-0.93362 -3.16393,-2.55259 -4.09494,-3.5977 -1.24957,-1.40274 -2.15078,-2.05236 -3.44232,-2.48134 -1.48765,-0.49412 -2.63181,-1.46185 -7.64254,-6.46413 -3.24113,-3.23566 -6.17444,-6.31613 -6.51846,-6.84548 -0.34402,-0.52936 -0.83026,-0.96246 -1.08053,-0.96246 -0.69553,0 -2.17024,-1.72494 -3.31761,-3.88056 -0.77194,-1.45028 -1.38165,-2.10448 -2.41428,-2.59048 -0.75984,-0.35762 -1.93716,-1.18237 -2.61625,-1.83279 -0.6791,-0.65041 -1.87228,-1.46907 -2.65151,-1.81923 -2.18388,-0.98137 -5.36849,-3.60697 -8.32654,-6.86493 -1.47828,-1.62816 -3.3039,-3.36684 -4.05695,-3.86375 -4.55641,-3.0066 -5.47588,-3.69032 -6.86161,-5.10227 l -1.53363,-1.56266 h -3.57642 c -3.10563,0 -3.96669,0.14184 -6.54114,1.07748 -3.09272,1.12402 -4.56129,1.62082 -10.29747,3.48352 -1.89871,0.61657 -4.74781,1.74757 -6.33134,2.51335 l -2.87913,1.39232 h -4.57588 c -5.24367,0 -8.65538,-0.49496 -10.4442,-1.51521 -0.68476,-0.39055 -1.84013,-1.0325 -2.5675,-1.42654 -0.72736,-0.39405 -1.60048,-1.10254 -1.94027,-1.57442 -0.3398,-0.47188 -1.13082,-1.48593 -1.75785,-2.25346 -1.03488,-1.26678 -1.45592,-2.28331 -2.01796,-4.87204 -0.10532,-0.48507 -0.73819,-1.27882 -1.40639,-1.76389 -0.66819,-0.48507 -1.58143,-1.59095 -2.02942,-2.45752 -0.76328,-1.47646 -0.94768,-1.60507 -2.93118,-2.04434 -6.18945,-1.37071 -8.5511,-2.34125 -12.99018,-5.33839 -1.32376,-0.89377 -2.84451,-1.90165 -3.37944,-2.23974 -0.53494,-0.3381 -3.38872,-1.40966 -6.34175,-2.38125 l -5.36914,-1.76654 h -6.34023 c -6.32605,0 -6.3435,0.002 -7.80616,0.97014 -1.29552,0.85736 -1.89956,0.99311 -5.19591,1.16774 -2.80354,0.14852 -4.12427,0.38756 -5.31747,0.96239 -0.87313,0.42064 -2.0471,0.76828 -2.60882,0.77254 -1.14688,0.009 -5.60969,2.04625 -7.87718,3.59642 -2.2992,1.57185 -5.79477,3.11352 -7.06027,3.11383 -0.93306,2.2e-4 -1.29796,0.24242 -1.99362,1.32319 -1.14975,1.78626 -4.56939,5.01737 -6.80236,6.42735 -2.04572,1.29174 -4.86406,4.78617 -6.97958,8.6539 -0.74289,1.3582 -2.1031,3.5807 -3.02269,4.93889 -2.42359,3.57954 -3.63226,5.9585 -4.74974,9.34861 -0.54364,1.64924 -1.39381,3.78108 -1.88928,4.73742 -0.89271,1.72309 -0.89998,1.80546 -0.80336,9.10893 0.10692,8.08201 -0.0498,7.42136 2.57394,10.84944 1.117,1.45943 3.11228,5.5682 3.11268,6.40978 1.5e-4,0.32467 0.41049,1.07782 0.91187,1.67367 0.50138,0.59586 1.17607,1.62388 1.49931,2.28449 0.32324,0.66061 1.49719,2.1685 2.60877,3.35086 1.96533,2.09045 2.10412,2.16825 5.03233,2.82071 1.65618,0.36904 3.42566,0.9655 3.93216,1.32548 0.50649,0.35997 1.26897,0.89263 1.69439,1.18367 2.0001,1.36834 4.05685,3.09336 5.70985,4.7889 1.99443,2.04579 3.47691,2.91277 6.65743,3.89342 1.7462,0.5384 2.54093,1.07427 4.54069,3.06166 1.73944,1.72869 2.9575,2.60864 4.313,3.1158 1.19437,0.44686 2.31372,1.19783 3.04404,2.04221 1.04313,1.20605 1.36936,1.35727 3.3669,1.56066 3.11566,0.31724 6.42795,2.18797 9.87013,5.57449 2.66227,2.61921 2.78769,2.69461 4.7364,2.84721 1.5764,0.12345 2.40157,0.43215 3.88361,1.45287 1.03504,0.71286 2.2774,1.29652 2.76079,1.29702 0.48339,5e-4 1.79965,0.55612 2.92502,1.23472 1.12538,0.6786 2.14702,1.23382 2.27032,1.23382 0.1233,0 0.5765,0.33098 1.0071,0.73551 0.4306,0.40453 1.45984,0.8876 2.28719,1.0735 1.64868,0.37043 5.18785,2.36656 6.85314,3.86526 0.58209,0.52384 1.77271,1.3062 2.64584,1.73857 0.87312,0.43237 2.2225,1.29261 2.99861,1.91165 0.77611,0.61904 2.4944,1.47578 3.81841,1.90386 1.32401,0.42808 2.99424,1.07777 3.71162,1.44374 0.71738,0.36598 2.14019,0.77154 3.16181,0.90123 1.02162,0.1297 2.76451,0.66095 3.8731,1.18055 1.84408,0.86434 2.33083,0.9366 5.71978,0.84914 3.95154,-0.10198 5.67865,0.1644 9.87778,1.52346 1.45521,0.47098 4.15396,1.09916 5.99722,1.39596 8.11417,1.3065 11.04268,1.98604 14.2875,3.31532 4.58433,1.87801 6.67404,2.67607 10.75972,4.10911 5.92684,2.07883 12.32353,3.99837 13.7227,4.11797 1.03997,0.0889 1.18532,-0.0246 1.61951,-1.26502 0.56778,-1.62204 1.96291,-3.16104 3.54693,-3.91271 1.63288,-0.77485 7.55037,-0.75363 9.08602,0.0326 1.11763,0.5722 2.92693,2.35168 4.76473,4.68619 0.8315,1.05624 0.95039,1.52386 0.95039,3.73814 0,1.39198 -0.17537,2.75372 -0.38972,3.02607 -0.21434,0.27236 -0.83372,1.76449 -1.3764,3.31585 -1.11849,3.19745 -1.86762,4.36195 -3.38129,5.2561 -0.60006,0.35446 -1.29227,1.217 -1.60606,2.00125 -0.30332,0.75806 -1.13037,1.87846 -1.8379,2.48979 -0.70752,0.61132 -1.60391,1.61951 -1.99196,2.24043 -1.92627,3.08215 -9.61343,11.02838 -12.17698,12.58736 -0.93574,0.56906 -1.89407,0.652 -7.6753,0.66425 l -6.60606,0.014 -1.94027,1.04426 c -1.26516,0.6809 -2.4532,1.04428 -3.41439,1.04433 -0.83985,5e-5 -1.70179,0.22777 -2.00327,0.52925 -0.29104,0.29104 -0.66956,0.52917 -0.84114,0.52917 -0.17159,0 -0.76825,0.47625 -1.32593,1.05833 -0.55767,0.58208 -1.14682,1.05833 -1.30922,1.05833 -0.16241,0 -1.09532,0.55033 -2.07315,1.22296 -0.97782,0.67262 -2.36306,1.31405 -3.0783,1.4254 -0.71524,0.11134 -1.88128,0.3568 -2.59121,0.54546 -0.70992,0.18866 -2.62552,0.24042 -4.25688,0.11503 l -2.96611,-0.228 -3.50423,2.19696 c -1.92733,1.20833 -3.90111,2.56077 -4.38617,3.00542 -0.48507,0.44465 -1.39789,1.06877 -2.02848,1.38695 l -1.14653,0.5785 v 3.67944 c 0,3.28373 0.0894,3.81125 0.83172,4.90504 0.99143,1.46096 2.46069,5.05097 2.98846,7.30209 0.24498,1.04491 0.85332,2.12006 1.71907,3.03824 1.42174,1.50783 3.63298,4.79446 3.63298,5.39981 0,0.84977 2.89689,9.07252 3.47958,9.87671 1.24224,1.71443 1.56573,2.64482 1.8348,5.277 0.30065,2.94117 0.37439,3.14824 2.63207,7.39058 1.21878,2.29016 1.57855,3.34053 1.57855,4.60865 0,1.35765 0.27181,2.04774 1.56748,3.97966 0.86211,1.28546 1.67454,2.90787 1.80538,3.60535 0.13085,0.69748 0.63966,1.8581 1.1307,2.57915 1.37673,2.02163 1.74795,3.18624 2.02093,6.34006 0.13864,1.60182 0.41075,3.01047 0.60469,3.13033 0.78996,0.48822 1.67506,3.20564 1.68252,5.16566 0.007,1.88183 0.28852,2.58759 3.71191,9.31081 2.03729,4.00106 3.70417,7.54731 3.70417,7.88058 0,0.33326 0.42042,1.2234 0.93428,1.97808 1.31892,1.93704 1.88741,3.43298 1.89129,4.97678 0.002,0.93222 0.40582,1.97204 1.33902,3.45092 0.73462,1.16416 1.91536,3.32764 2.62387,4.80773 0.70851,1.48008 1.9062,3.40511 2.66154,4.27783 1.64203,1.89723 3.95555,6.23824 3.95555,7.42207 0,0.46503 0.34042,1.14793 0.75649,1.51755 0.41607,0.36962 1.11818,1.46579 1.56023,2.43593 0.44205,0.97014 1.84167,2.87514 3.11027,4.23333 1.73614,1.85877 2.79583,3.46071 4.28512,6.47787 1.45058,2.93875 2.47347,4.49938 3.83312,5.84821 1.02,1.01188 2.63075,2.93871 3.57945,4.28185 0.94869,1.34314 1.80968,2.52157 1.91331,2.61873 0.30834,0.28911 1.36116,2.3029 4.61068,8.81918 2.49832,5.00987 3.3499,6.39074 4.51765,7.32551 1.44313,1.15519 1.71913,1.62785 3.24128,5.55088 0.4517,1.16416 2.68041,5.84729 4.95268,10.40694 2.27228,4.55965 4.32834,8.92528 4.56904,9.70139 0.2407,0.77611 0.55388,1.56986 0.69595,1.76389 0.24892,0.33994 0.52311,2.01095 1.02031,6.21822 0.12902,1.09168 0.41508,2.20293 0.63569,2.46944 0.22061,0.26651 1.03391,2.31019 1.80732,4.5415 1.76279,5.0857 8.61272,18.78229 11.73267,23.45973 2.95738,4.43372 4.56208,7.73289 4.56208,9.37938 0,1.24577 0.41188,1.99979 2.52625,4.62466 0.51631,0.64097 2.48184,4.18165 4.36784,7.86818 3.2125,6.27941 3.44998,6.89038 3.75983,9.67283 0.19983,1.79441 0.64777,3.60975 1.13164,4.58612 0.44049,0.88883 1.16331,2.76532 1.60627,4.16999 0.53772,1.70517 1.21115,2.98418 2.02634,3.84854 0.67154,0.71203 1.61201,2.18213 2.08995,3.26689 0.47794,1.08476 1.30284,2.52792 1.83313,3.20702 1.08056,1.38381 2.08386,2.83251 2.90757,4.19834 0.30415,0.50432 0.76388,2.34569 1.02162,4.09194 0.46227,3.13183 1.31589,5.2157 2.28957,5.58934 0.55669,0.21362 4.42714,5.22718 4.42428,5.73095 -0.001,0.17676 0.49743,1.86874 1.10764,3.75996 1.0461,3.24214 1.25896,3.59482 3.72605,6.17361 2.86124,2.99077 5.16094,7.1012 5.55949,9.93689 0.1204,0.85657 0.71344,2.44407 1.31788,3.52777 1.91958,3.44161 2.1082,3.89707 2.61294,6.30949 0.34913,1.66866 0.49449,4.99774 0.49449,11.32519 v 8.9618 l 1.05833,2.23997 c 0.61846,1.30898 1.05834,2.81831 1.05834,3.63147 0,0.80676 0.37061,2.08853 0.88194,3.05021 0.48507,0.91229 0.88149,2.23038 0.88093,2.92909 -5.6e-4,0.6987 0.3768,2.22287 0.83857,3.38704 0.46177,1.16416 1.02437,2.91041 1.25022,3.88055 0.22586,0.97014 0.8873,2.43449 1.46989,3.25411 0.58258,0.81962 1.42907,2.32774 1.8811,3.35139 1.06124,2.40324 4.56937,12.92713 5.14795,15.44311 0.24541,1.06716 0.70997,2.33716 1.03236,2.82223 0.87716,1.31978 1.4337,2.75363 1.4337,3.69369 0,0.46106 0.37873,1.28837 0.84161,1.83848 0.46289,0.55011 1.08666,1.58668 1.38617,2.3035 0.2995,0.71681 1.78802,2.54109 3.30781,4.05395 4.1593,4.14032 4.43242,4.52735 6.62278,9.38508 1.02427,2.27162 1.81364,3.33289 4.50765,6.06033 3.93936,3.98824 4.62635,4.85683 6.64123,8.3968 0.85997,1.51091 2.71453,4.525 4.12123,6.69798 1.4067,2.17298 2.55764,4.13079 2.55764,4.35069 0,0.65278 1.31625,4.57507 1.96085,5.84314 0.32851,0.64623 2.38379,3.87372 4.56729,7.17219 3.78342,5.71535 4.35273,6.38273 12.112567,14.19931 4.4784,4.51114 8.33227,8.20208 8.56415,8.20208 0.23188,0 0.94193,0.39687 1.57789,0.88194 0.63596,0.48507 1.3425,0.88195 1.57009,0.88195 0.22759,0 4.13273,3.74443 8.67808,8.32096 7.46538,7.51658 8.39958,8.59006 9.6639,11.10467 0.7698,1.53104 1.39963,3.252139 1.39963,3.824669 0,1.01972 0.76609,2.1497 1.45742,2.1497 0.5649,0 4.16305,3.54409 5.73054,5.64444 0.79642,1.06716 2.05405,2.87256 2.79475,4.01202 1.30116,2.001648 7.86945,9.040761 8.43606,9.040761 0.15315,0 0.27845,-2.941974 0.27845,-6.537719 0,-7.392462 0.21891,-8.337742 2.39483,-10.341272 2.98412,-2.7477 3.39066,-2.87656 9.07477,-2.87656 6.60488,0 7.14725,0.21129 10.15164,3.95476 1.4051,1.75075 2.36765,3.69741 2.36765,4.78832 0,0.65118 2.43646,5.712862 3.18275,6.612089 0.21703,0.2615 0.56528,2.112625 0.7739,4.113613 0.25212,2.418206 0.57612,3.874746 0.96623,4.343714 1.31128,1.576346 1.47603,2.637218 1.39395,8.975851 l -0.0802,6.193594 1.11502,2.106939 c 0.61326,1.158817 1.11502,2.622366 1.11502,3.252331 0,1.59187 1.2561896,3.839972 2.7776096,4.970877 1.35768,1.009185 1.74919,1.422056 3.33721,3.519257 1.10477,1.459011 6.33168,9.490313 7.30961,11.231421 0.34118,0.60745 0.79403,1.404017 1.00633,1.770148 0.2123,0.366132 0.69784,1.419756 1.07897,2.341388 l 0.69297,1.675695 h 5.0477104 c 4.3718,0 5.51901,-0.127071 8.5674,-0.948961 z M -102.07274,-192.65175 c -2.11566,-0.84114 -4.23333,-3.87953 -4.23333,-6.07388 0,-3.23475 2.00646,-5.46284 6.0912,-6.764 1.735384,-0.55279 3.392714,-1.33969 3.993814,-1.89627 0.56512,-0.52325 2.11797,-1.55839 3.45079,-2.30032 1.94526,-1.08284 3.07601,-1.44011 5.732,-1.81107 2.12446,-0.29672 4.01517,-0.80777 5.28254,-1.42784 1.93891,-0.94862 2.09652,-0.96625 8.90827,-0.99639 5.61089,-0.0248 7.17011,-0.14007 8.16917,-0.60376 1.60392,-0.74443 4.58567,-1.36721 6.54589,-1.36721 1.36549,0 4.73476,-0.84788 7.14084,-1.79701 0.4457,-0.17581 2.3507,-0.30946 4.23334,-0.29701 5.33857,0.0353 8.68629,1.00186 10.21898,2.95036 0.37658,0.47874 1.55301,1.25445 2.6143,1.7238 1.06129,0.46936 2.26629,1.28138 2.67777,1.80449 2.51149,3.19284 1.65106,7.99741 -1.81018,10.10798 -1.42283,0.8676 -4.37862,0.87399 -6.75011,0.0146 -3.02856,-1.09752 -3.49867,-1.35269 -4.56392,-2.47725 -1.31348,-1.38662 -2.275,-1.39062 -6.1958,-0.0258 -2.09168,0.72812 -3.67334,1.04455 -5.22947,1.04622 -1.51308,0.002 -3.10216,0.30843 -4.93889,0.95358 -2.4647,0.86572 -3.32616,0.9701 -9.5872,1.1616 -6.17346,0.18883 -7.03123,0.2903 -8.36143,0.98909 -0.81525,0.42827 -1.91349,0.77867 -2.44055,0.77867 -0.52705,0 -1.96466,0.17526 -3.19468,0.38945 -1.82999,0.31869 -2.54042,0.65641 -3.90945,1.8585 -1.80602,1.58578 -2.57499,2.02871 -5.02445,2.89409 -4.31346,1.5239 -7.018604,1.88136 -8.819444,1.16537 z m -97.36667,-196.84919 c -0.48507,-0.19241 -1.41029,-0.85703 -2.05605,-1.47694 -2.18098,-2.0937 -2.74658,-4.80747 -1.50614,-7.22658 1.47488,-2.87633 3.26463,-3.9547 6.56353,-3.9547 1.26947,0 2.45548,-0.24989 3.34866,-0.70556 0.76065,-0.38805 1.71161,-0.70555 2.11324,-0.70555 0.40164,0 1.63827,-0.382 2.74809,-0.84888 4.58329,-1.92813 6.48812,-2.40165 8.71655,-2.16681 1.66209,0.17515 2.5785,0.0645 4.2374,-0.51174 1.16417,-0.40438 3.723,-0.9598 5.68629,-1.23428 2.3812,-0.33291 4.02548,-0.76846 4.93889,-1.30826 1.10407,-0.65247 2.08668,-0.84891 5.07343,-1.01422 2.57076,-0.14229 4.24389,-0.42959 5.46806,-0.93894 0.97014,-0.40366 2.55764,-0.88719 3.52778,-1.07451 2.65359,-0.51238 5.37878,-1.62321 6.45125,-2.62963 1.28701,-1.20775 5.25174,-3.22385 6.76915,-3.44218 l 1.22596,-0.17638 0.39728,-2.99862 c 0.2185,-1.64923 0.73838,-3.70311 1.15528,-4.56417 0.70293,-1.4518 0.75802,-2.11279 0.75802,-9.09536 0,-5.99829 0.11105,-7.79558 0.54601,-8.83657 2.3599,-5.64804 9.95364,-5.64804 12.31354,0 0.44801,1.07224 0.546,3.05202 0.546,11.03083 0,10.02709 -0.15035,11.26351 -1.56429,12.86347 -0.28338,0.32067 -0.5318,1.63818 -0.60821,3.22568 -0.11298,2.34726 -0.28948,2.94417 -1.40828,4.7625 -2.07911,3.37913 -6.46112,6.46477 -9.20367,6.48088 -1.0807,0.006 -1.66736,0.32305 -3.24511,1.75187 -1.3945,1.26287 -2.53931,1.93537 -4.14888,2.43719 -1.22262,0.38119 -2.93732,1.00008 -3.81044,1.37532 -0.87313,0.37524 -2.32255,0.78099 -3.22095,0.90166 -0.89839,0.12067 -2.39047,0.62192 -3.31573,1.11389 -1.43834,0.76477 -2.13838,0.89448 -4.82736,0.89448 -2.55144,0 -3.49037,0.15697 -4.97454,0.83164 -1.09809,0.49917 -3.23489,1.0068 -5.34494,1.26978 -1.9335,0.24097 -4.27969,0.73937 -5.21375,1.10754 -1.07407,0.42336 -3.02359,0.74337 -5.30398,0.87064 -3.66799,0.20471 -4.00117,0.29394 -12.28412,3.28973 -2.61596,0.94615 -3.49086,1.09426 -6.35,1.07498 -1.82381,-0.0123 -3.7129,-0.17979 -4.19797,-0.3722 z m -8.41255,-55.01515 c -2.12416,-0.85101 -7.0816,-6.34473 -8.18573,-9.07125 -0.1792,-0.44251 -0.34877,-2.18876 -0.37683,-3.88056 -0.0684,-4.12324 0.8761,-7.2053 3.2129,-10.48432 2.1137,-2.96597 3.07376,-4.85257 3.346,-6.57516 0.61642,-3.90052 4.37563,-5.76527 13.59121,-6.74187 3.06237,-0.32453 3.57382,-0.28689 5.93058,0.43643 1.41855,0.43537 3.03606,1.17602 3.59447,1.64589 2.49597,2.10022 6.42823,8.93497 7.22335,12.55507 0.26666,1.21408 0.75227,3.08055 1.07913,4.1477 0.32687,1.06715 0.6711,3.4867 0.76496,5.37678 0.21142,4.25729 -0.33746,5.61502 -3.32369,8.22161 -3.16892,2.76606 -3.6997,2.92221 -9.62435,2.83145 -5.21989,-0.08 -5.86829,-0.22567 -7.61892,-1.71213 -0.72451,-0.61519 -0.7595,-0.59827 -1.69903,0.82144 -1.54668,2.3372 -5.2817,3.48352 -7.91405,2.42892 z m 60.62367,-8.73344 c -0.48507,-0.32537 -2.50765,-2.19862 -4.49461,-4.16279 -2.38424,-2.35688 -3.96383,-3.64145 -4.64541,-3.77776 -1.24945,-0.24989 -3.39453,-2.06751 -4.139,-3.50713 -0.40929,-0.79149 -0.59155,-2.72623 -0.74032,-7.85859 -0.21367,-7.37103 -0.0541,-8.28076 1.73752,-9.90608 0.96399,-0.87451 5.37078,-3.15213 6.64471,-3.43429 1.21824,-0.26982 3.05602,-2.14392 4.07581,-4.15636 0.82589,-1.62982 2.17857,-2.8006 5.18976,-4.49189 1.1195,-0.62879 1.91635,-0.74807 4.99723,-0.74807 3.4939,0 3.77952,0.058 6.10651,1.24017 3.42127,1.73809 3.65842,2.0341 7.18837,8.97254 1.99323,3.91789 3.14338,6.67349 4.20389,10.07201 0.67964,2.17801 0.74599,2.97325 0.56222,6.7384 -0.15029,3.07938 -0.39775,4.70139 -0.88804,5.82083 -0.99708,2.27657 -4.3107,5.28248 -7.52103,6.8226 -2.70601,1.29818 -2.72077,1.30078 -6.01436,1.05902 -3.24733,-0.23837 -3.33383,-0.22423 -5.25336,0.85909 -1.6032,0.90479 -2.3245,1.09684 -4.03981,1.07566 -1.33122,-0.0164 -2.40783,-0.24023 -2.97008,-0.61736 z m 13.34141,-16.28154 c 0.0951,-1.33367 -0.79311,-5.30031 -1.18686,-5.30031 -0.0699,0 -0.37593,0.51593 -0.68016,1.14652 -0.30424,0.63059 -1.47363,2.13144 -2.59866,3.33521 -2.33243,2.49568 -2.34956,2.47367 1.88399,2.42239 l 2.46944,-0.0299 z"
       id="path1" /></g></svg>
