<?xml version="1.0" encoding="UTF-8" standalone="no"?>
<!-- Created with Inkscape (http://www.inkscape.org/) -->

<svg
   width="468.42172mm"
   height="607.99701mm"
   viewBox="0 0 468.42172 607.997"
   version="1.1"
   id="svg1"
   xml:space="preserve"
   xmlns="http://www.w3.org/2000/svg"
   xmlns:svg="http://www.w3.org/2000/svg"><defs
     id="defs1" /><g
     id="layer1"
     transform="translate(188.39388,652.35534)"><path
       style="fill:#000000"
       d="m 139.42126,-44.55745 c -3.80251,-0.977893 -7.31571,-3.848886 -9.25578,-7.563836 -0.672,-1.286774 -1.59151,-2.738291 -2.04337,-3.225594 -1.0848,-1.169906 -2.36115,-3.815893 -2.88381,-5.978359 -0.32094,-1.327898 -0.90239,-2.25679 -2.44466,-3.905487 -3.17629,-3.395463 -3.89603,-5.276561 -4.30126,-11.241643 -0.24908,-3.666576 -0.56313,-5.635117 -1.18887,-7.452248 -0.6629,-1.925039 -0.89257,-3.486467 -1.04178,-7.082706 -0.15214,-3.666821 -0.36984,-5.114316 -1.06117,-7.055556 l -0.86976,-2.442291 0.0259,-17.10972 c 0.0275,-18.16461 -0.0471,-19.18977 -1.71175,-23.5199 -0.46027,-1.19725 -0.83686,-2.48498 -0.83686,-2.86162 0,-0.37663 -0.47647,-1.73562 -1.05882,-3.01997 -0.58236,-1.28436 -1.20013,-3.33038 -1.37284,-4.54671 -0.1727,-1.21634 -0.64873,-3.22993 -1.05784,-4.47465 -0.87537,-2.66333 -0.94653,-5.51294 -0.19897,-7.96743 0.29548,-0.97014 0.67141,-3.07855 0.8354,-4.68536 0.22653,-2.21947 0.59702,-3.53339 1.54185,-5.46806 0.68402,-1.40062 1.4384,-3.10221 1.67639,-3.78131 1.40106,-3.9978 3.57566,-6.72727 6.86678,-8.61889 0.97013,-0.5576 2.47826,-1.62622 3.35138,-2.37471 0.87313,-0.74849 1.86172,-1.59378 2.19686,-1.87842 0.70296,-0.59702 0.5496,-1.25256 -0.68295,-2.91934 -0.46816,-0.63309 -1.22754,-2.00203 -1.68749,-3.04208 -0.45996,-1.04005 -1.37402,-2.74456 -2.03124,-3.78781 -1.63016,-2.58766 -1.97622,-3.57127 -2.37432,-6.74852 -0.18848,-1.50428 -0.59855,-3.22985 -0.91128,-3.83459 -0.60249,-1.16509 -0.56107,-4.59683 0.13575,-11.24564 0.62717,-5.98432 2.47023,-9.19687 7.01463,-12.22691 0.73626,-0.49091 2.05303,-1.5788 2.92616,-2.41753 0.87312,-0.83874 2.2225,-1.85314 2.99861,-2.25423 3.05186,-1.57718 5.89584,-5.00434 8.33031,-10.03851 1.67818,-3.47026 1.79047,-5.35224 0.48913,-8.19727 -0.48507,-1.06047 -0.88194,-1.99744 -0.88194,-2.08215 0,-0.42871 -3.02315,-4.74801 -4.20802,-6.01217 -0.74721,-0.79722 -1.68516,-2.08968 -2.08434,-2.87214 -0.39919,-0.78245 -1.43956,-2.25885 -2.31194,-3.28087 -1.44206,-1.68942 -3.39015,-5.63197 -3.39015,-6.861 0,-0.27306 -0.39687,-1.28663 -0.88194,-2.25238 -0.48507,-0.96575 -0.88195,-1.91348 -0.88195,-2.10607 0,-0.19258 -0.58774,-1.2014 -1.3061,-2.24182 -1.67678,-2.42854 -2.90821,-5.4163 -2.91886,-7.08191 -0.005,-0.72032 -0.3628,-2.22845 -0.796,-3.35139 -0.6244,-1.61856 -0.78871,-2.77283 -0.79283,-5.56948 -0.005,-3.1998 0.0977,-3.75737 1.10124,-5.99722 0.60855,-1.3582 1.31429,-3.18382 1.56834,-4.05695 0.63868,-2.19512 2.93565,-5.77393 4.49294,-7.00026 1.67277,-1.31727 4.77026,-2.87752 5.71262,-2.87752 0.8242,0 2.81277,-0.9382 2.8232,-1.33197 0.0296,-1.11761 5.437,-5.3708 6.8283,-5.3708 0.22242,0 1.48505,-0.72495 2.80584,-1.611 l 2.40143,-1.611 -0.84257,-1.12303 c -0.46341,-0.61767 -1.10596,-1.79285 -1.42787,-2.61152 -0.32192,-0.81867 -1.12456,-2.24742 -1.78366,-3.175 -1.61801,-2.27713 -2.16851,-3.45108 -2.69329,-5.74345 -0.24429,-1.06716 -0.84156,-2.81341 -1.32725,-3.88056 -0.50559,-1.11085 -1.00582,-3.07132 -1.1702,-4.58611 -0.31349,-2.88887 -1.20088,-6.19371 -1.75504,-6.5362 -0.42453,-0.26237 -2.10079,-3.51025 -2.10079,-4.07043 0,-0.21974 -0.57166,-1.32568 -1.27035,-2.45766 l -1.27036,-2.05813 -2.52201,0.18405 c -1.3871,0.10123 -3.4745,0.44379 -4.63867,0.76125 -1.75128,0.47757 -4.09583,0.57962 -13.58195,0.5912 -10.354201,0.0127 -11.578913,0.0755 -12.637925,0.64892 -0.644958,0.3492 -2.311833,0.92633 -3.704167,1.28251 -2.276636,0.58239 -2.525336,0.73108 -2.470135,1.47674 0.111226,1.50244 0.763325,4.02447 1.635397,6.32497 0.472295,1.2459 1.13394,3.1384 1.470322,4.20556 0.481528,1.52761 2.504327,4.79644 3.711175,5.99722 1.859316,1.84997 2.445263,7.4119 2.174163,20.6375 -0.03579,1.74625 -0.316762,4.04812 -0.62437,5.11528 -0.307609,1.06715 -0.683109,2.8134 -0.834444,3.88055 -0.681522,4.8058 -2.632517,8.28745 -5.887175,10.50598 -1.058675,0.72164 -2.905556,2.14476 -4.104182,3.16248 -2.002153,1.69997 -5.348233,3.61765 -6.312276,3.61765 -0.220245,0 -1.158043,0.48615 -2.083997,1.08034 -0.925954,0.59418 -2.457074,1.36306 -3.402489,1.70862 -2.330102,0.85168 -6.793979,3.49177 -6.792956,4.01758 4.55e-4,0.23397 0.484814,0.98103 1.076354,1.66013 0.59154,0.6791 1.776975,2.66347 2.6343,4.40972 0.857326,1.74625 2.051374,4.1275 2.653441,5.29167 1.266037,2.44803 2.129958,4.13703 3.553642,6.94752 0.642682,1.26872 1.134497,2.9581 1.335118,4.58611 0.174692,1.41762 0.569695,3.45061 0.877783,4.51776 0.744992,2.58049 0.711866,4.77458 -0.124413,8.24056 -0.381121,1.57957 -0.931747,3.94875 -1.223613,5.26486 -0.624997,2.81829 -2.346892,5.61167 -4.594371,7.45331 -0.849921,0.69645 -1.688774,1.26627 -1.864116,1.26627 -0.175342,0 -1.418625,0.95187 -2.762851,2.11526 -1.344226,1.16339 -3.425906,2.54359 -4.625957,3.06711 -1.402516,0.61185 -2.34578,1.27393 -2.640662,1.85349 -0.252312,0.4959 -0.920422,1.6706 -1.484686,2.61043 -0.903676,1.50516 -1.018266,2.00964 -0.961567,4.23334 0.04636,1.81805 -0.147275,3.11688 -0.691912,4.6412 -0.415954,1.16417 -0.833476,2.68878 -0.927825,3.38802 -0.185803,1.37703 0.623278,4.31896 2.221381,8.07726 1.077112,2.53307 1.370679,4.85551 1.828303,14.46389 0.152478,3.20146 0.144292,6.61458 -0.01819,7.58472 -0.162483,0.97014 -0.433434,3.11327 -0.602113,4.7625 -0.46468,4.54335 -1.066538,6.07272 -3.641474,9.25328 -0.827857,1.02257 -2.019365,2.70041 -2.647795,3.72852 -0.62843,1.02812 -1.704242,2.36243 -2.390692,2.96514 -2.48119,2.17851 -4.674054,6.39079 -5.472109,10.5114 -0.169102,0.87312 -0.696413,2.61937 -1.171801,3.88055 -1.411748,3.74529 -2.601387,7.81492 -2.851741,9.75551 -0.128998,0.99991 -0.248425,6.87366 -0.265395,13.05278 -0.03492,12.71621 -0.130296,12.2089 3.07376,16.35005 0.825669,1.06715 1.825669,2.57527 2.222222,3.35139 0.396554,0.77611 1.14108,1.88736 1.654502,2.46944 0.513422,0.58208 1.197932,1.4949 1.521134,2.02847 0.323202,0.53358 0.814566,0.97014 1.091921,0.97014 0.277355,0 1.64529,0.5488 3.039854,1.21956 6.568406,3.15928 9.663462,10.175516 7.594585,17.216301 -0.214321,0.729376 -1.104798,2.370682 -1.978836,3.647346 -0.874039,1.276665 -1.968177,3.14982 -2.431417,4.162567 -0.463241,1.012747 -1.684944,2.816825 -2.714896,4.009062 -1.029951,1.192236 -2.356837,2.929194 -2.948634,3.859906 -1.193921,1.877664 -4.85586,4.577533 -7.199689,5.308176 -3.020732,0.941655 -8.463197,0.418919 -11.016813,-1.058139 -2.501929,-1.447161 -4.818002,-3.910426 -6.11182,-6.500242 -0.945887,-1.893367 -1.026797,-2.359709 -1.029779,-5.935369 -0.0029,-3.499974 0.09088,-4.077279 0.956401,-5.886423 0.527801,-1.103227 0.959638,-2.181568 0.959638,-2.396314 0,-0.214745 -0.595312,-1.217966 -1.322917,-2.229379 -0.727604,-1.011414 -1.628447,-2.393698 -2.001873,-3.071742 -0.373426,-0.678045 -1.187094,-1.867809 -1.808152,-2.64392 -0.621058,-0.776111 -1.404292,-1.966736 -1.740521,-2.64583 -0.336228,-0.6791 -1.279023,-2.10785 -2.095099,-3.175 -1.452063,-1.89881 -2.690571,-4.2361 -3.177876,-5.99723 -0.13422,-0.48507 -0.750241,-1.99319 -1.368938,-3.35138 l -1.124902,-2.46945 0.02893,-17.4625 c 0.02815,-16.9928 0.04973,-17.52493 0.802416,-19.78336 0.425419,-1.27648 0.921697,-3.2315 1.102842,-4.34449 0.181144,-1.11299 0.718466,-2.84673 1.194049,-3.85275 0.475582,-1.00602 0.978509,-2.46412 1.117614,-3.24023 0.139105,-0.77611 0.561126,-2.10068 0.937825,-2.94347 0.376699,-0.8428 0.827549,-2.40878 1.001888,-3.47996 0.320598,-1.96983 1.396082,-4.59247 2.448277,-5.97028 0.315871,-0.41362 0.795247,-1.4455 1.065279,-2.29306 0.710464,-2.22995 2.66899,-5.21425 4.452005,-6.78373 0.851118,-0.74918 1.547489,-1.50143 1.547489,-1.67166 0,-0.31159 0.388905,-0.83438 2.244691,-3.0175 1.004863,-1.1821 1.009965,-1.2126 1.009364,-6.03506 -6.43e-4,-5.16327 -0.58048,-8.50638 -1.942024,-11.19695 -0.961583,-1.9002 -1.655528,-4.60619 -1.660622,-6.47547 -0.0023,-0.84512 -0.258931,-2.51199 -0.570284,-3.70417 -0.668421,-2.55938 -0.513321,-5.98569 0.377583,-8.34119 0.898179,-2.37474 1.261926,-4.70879 1.374455,-8.81945 0.106885,-3.90454 0.80064,-6.27809 2.526234,-8.64305 0.424717,-0.58209 1.218724,-2.01084 1.76446,-3.175 0.545736,-1.16417 1.502685,-2.75167 2.126553,-3.52778 0.623868,-0.77611 1.573595,-2.25858 2.110504,-3.29438 1.578825,-3.04585 3.893564,-5.13031 7.756525,-6.9849 1.871152,-0.89832 3.478198,-1.83164 3.571213,-2.07403 0.21819,-0.5686 -0.6863,-2.72255 -2.008468,-4.78297 -0.572712,-0.89249 -1.041295,-1.84731 -1.041295,-2.12181 0,-0.6993 -3.212388,-6.17231 -4.743855,-8.08219 -1.600828,-1.99639 -2.863806,-4.64767 -3.192965,-6.70278 -0.139845,-0.87312 -0.672651,-2.46062 -1.184014,-3.52778 -0.839154,-1.75121 -0.92671,-2.3184 -0.898545,-5.82083 0.03278,-4.07619 0.574375,-9.49046 1.130246,-11.29893 1.115495,-3.62915 3.863095,-6.73415 7.718599,-8.72261 1.322891,-0.68227 3.754632,-2.0501 5.403868,-3.03962 1.649236,-0.98952 3.871736,-2.22023 4.938889,-2.7349 6.767965,-3.26411 9.081003,-4.33894 9.733786,-4.52313 0.405873,-0.11452 1.099192,-0.59274 1.540708,-1.06271 0.703445,-0.74878 0.825151,-1.32698 0.983778,-4.67368 l 0.181022,-3.81919 -1.613572,-2.30823 c -1.016819,-1.45457 -1.868356,-3.2139 -2.302488,-4.75706 -0.378904,-1.34686 -1.014486,-3.19645 -1.412405,-4.11022 -0.39792,-0.91376 -0.835514,-2.25852 -0.972431,-2.98836 -0.136918,-0.72983 -0.639562,-2.20471 -1.116987,-3.2775 -0.991411,-2.22774 -1.419723,-6.68149 -0.869836,-9.0449 l 0.337349,-1.44993 -3.038212,-0.17148 c -1.671017,-0.0943 -7.403837,-0.12605 -12.739602,-0.0706 -7.530641,0.0784 -10.161648,-0.0127 -11.758354,-0.40706 -1.131331,-0.2794 -2.718831,-0.51072 -3.527778,-0.51404 -0.808947,-0.003 -2.661438,-0.31811 -4.116646,-0.69951 -3.042335,-0.79739 -4.435876,-0.88127 -4.801893,-0.28904 -0.141582,0.22908 -0.236394,4.6344 -0.210693,9.78958 0.04503,9.03279 0.01602,9.46272 -0.799093,11.84251 -0.465202,1.3582 -0.953311,3.16765 -1.084688,4.02102 -0.310966,2.0199 -0.884041,3.35251 -2.371813,5.51535 -0.667938,0.97102 -1.716332,2.77706 -2.329764,4.01344 -0.864273,1.74196 -2.118158,3.23276 -5.570441,6.62299 -2.8733259,2.82167 -5.031595,4.63646 -6.0787807,5.11137 -0.8930179,0.40499 -2.338044,1.32161 -3.211169,2.03693 -0.8731251,0.71532 -2.22250011,1.59231 -2.99861126,1.94888 -0.77611114,0.35657 -2.04611124,1.16075 -2.82222234,1.78707 -1.7195192,1.38764 -4.8309019,2.98601 -5.8125841,2.98601 -0.3964187,0 -2.0082346,0.6649 -3.5818136,1.47755 -2.088418,1.07854 -3.69595,2.29321 -5.952668,4.49792 -1.700389,1.6612 -3.626038,3.4973 -4.27922,4.08023 -1.607516,1.43461 -2.682364,2.86426 -3.579433,4.76097 -0.412954,0.87312 -1.191778,2.20264 -1.73072,2.95448 -0.538942,0.75185 -0.92944,1.46622 -0.867773,1.5875 1.296376,2.54963 2.43099,5.30009 2.673988,6.4821 0.348217,1.69384 2.471509,6.62136 3.446673,7.9987 1.226621,1.7325 2.573828,5.33046 2.573828,6.87387 0,0.45362 0.333003,1.57758 0.740008,2.49768 0.810637,1.83258 1.549211,9.93446 1.30285,14.29178 -0.247878,4.38415 -3.286225,8.85746 -7.418752,10.92251 -1.175195,0.58725 -2.629193,1.44303 -3.231107,1.90172 -0.601914,0.4587 -1.967514,1.29309 -3.034667,1.85419 l -1.940277,1.02019 -12.347223,0.0375 c -6.790973,0.0206 -12.459734,0.0603 -12.597248,0.0882 -0.137514,0.0279 0.140299,0.82784 0.617361,1.77765 0.477063,0.94981 0.867386,1.95933 0.867386,2.24339 0,0.28406 0.47995,1.41588 1.066556,2.51515 0.586605,1.09927 1.39107,2.86602 1.787698,3.92611 0.532935,1.42439 1.152264,2.27376 2.373028,3.25445 0.908537,0.72986 2.093292,1.80327 2.632789,2.38536 1.158087,1.2495 3.428819,5.75484 3.428819,6.80309 0,0.76765 2.514476,6.16428 4.155587,8.91882 0.52783,0.88594 1.536987,2.31469 2.242571,3.175 0.705584,0.86031 1.578709,2.0525 1.940278,2.64932 1.53416,2.53233 7.733852,9.16723 11.139172,11.92113 0.914281,0.73939 2.2528,2.24296 2.974487,3.34127 0.721686,1.09831 1.92072,2.69668 2.66452,3.55194 2.159719,2.48336 3.455057,5.47142 3.693036,8.51903 0.11278,1.44428 0.423621,3.49274 0.690758,4.55216 0.631879,2.5059 0.616154,5.36222 -0.04346,7.89467 -0.291042,1.11738 -0.529167,2.57394 -0.529167,3.23679 0,2.3514 -1.27084,5.49976 -3.332804,8.25664 -0.786333,1.05134 -2.144071,2.95034 -3.017196,4.22 -1.07218,1.55912 -2.304695,2.79548 -3.796896,3.80874 -2.465353,1.67406 -4.044364,2.2093 -7.668383,2.59937 -1.358194,0.14619 -3.072937,0.42564 -3.81054,0.621 -1.702661,0.45097 -6.550021,2.79938 -7.478349,3.62306 -0.388056,0.34431 -1.578681,1.05651 -2.645834,1.58266 -1.067152,0.52615 -2.972153,1.62322 -4.233333,2.43793 -2.831054,1.82883 -3.719906,2.16365 -7.036118,2.65043 -1.444518,0.21203 -2.793893,0.51614 -2.998611,0.67578 -0.204719,0.15965 -0.823212,0.39818 -1.37443,0.53008 -0.679052,0.16247 -0.939097,0.40428 -0.806471,0.7499 0.107659,0.28055 0.305817,1.33987 0.440352,2.35404 0.134534,1.01417 0.611263,2.74629 1.059396,3.84916 0.743825,1.83056 0.823485,2.63049 0.91464,9.18465 0.09952,7.155549 0.09671,7.185931 -0.843077,9.125832 -0.518611,1.07051 -1.27748,2.795143 -1.686375,3.832517 -2.329501,5.909991 -7.244238,9.324222 -13.422085,9.324222 -2.450165,0 -4.924335,-0.569381 -6.772726,-1.55861 -2.188593,-1.1713 -4.663376,-3.81753 -6.00502,-6.421035 -1.063972,-2.064672 -1.126009,-2.397593 -1.130197,-6.065142 -0.004,-3.503804 0.09065,-4.086054 0.974871,-5.997224 1.140333,-2.46472 1.072958,-4.05281 -0.338562,-7.98018 -0.461713,-1.28465 -0.839478,-2.75607 -0.839478,-3.26982 0,-0.51374 -0.396791,-2.06979 -0.881758,-3.45787 -0.616799,-1.76541 -0.892291,-3.32701 -0.916811,-5.19684 -0.01928,-1.47019 -0.187708,-3.81563 -0.374286,-5.21209 -0.911771,-6.82426 2.671875,-12.99161 9.052022,-15.57827 1.552222,-0.62931 3.405576,-1.45724 4.118563,-1.83984 0.712987,-0.3826 2.459237,-1.00072 3.880555,-1.37361 1.421319,-0.37288 3.398513,-0.98376 4.393766,-1.35751 0.995252,-0.37375 2.741502,-0.79509 3.880556,-0.93631 2.484723,-0.30806 4.117006,-0.94437 5.775172,-2.25132 0.679097,-0.53526 2.028473,-1.3396 2.998611,-1.78744 0.970139,-0.44783 2.478264,-1.32571 3.35139,-1.95084 1.449255,-1.03763 4.109144,-2.23701 6.35,-2.8633 0.485069,-0.13557 1.79023,-0.70204 2.900357,-1.25882 1.110126,-0.55678 2.419814,-1.01233 2.910416,-1.01233 0.563527,0 0.892005,-0.19776 0.892005,-0.53705 0,-0.55466 -2.591237,-3.6304 -3.527778,-4.18738 -1.209056,-0.71905 -8.668432,-8.6525 -9.820866,-10.44501 -0.686087,-1.06716 -1.702175,-2.41653 -2.257973,-2.99861 -0.555798,-0.58209 -1.562147,-1.98685 -2.236331,-3.12169 -0.674184,-1.13485 -1.737511,-2.66772 -2.362949,-3.40639 -1.036418,-1.22405 -2.577266,-3.94176 -5.4994,-9.6997 -0.59081,-1.16417 -1.169519,-2.72071 -1.286021,-3.45898 -0.135512,-0.85874 -0.554246,-1.62128 -1.162335,-2.11667 -3.359659,-2.737 -5.0753,-5.05258 -6.062654,-8.18269 -0.244815,-0.77611 -0.63842,-1.64923 -0.874678,-1.94027 -0.675116,-0.83167 -2.303461,-4.31271 -2.303461,-4.92429 0,-0.30383 -0.630824,-1.7411 -1.40183,-3.19393 -0.771007,-1.45283 -1.406007,-2.91431 -1.411111,-3.24773 -0.0051,-0.33343 -0.656462,-1.87253 -1.44746,-3.42024 -1.28854,-2.52121 -1.473748,-3.2106 -1.780048,-6.62571 -0.740142,-8.25226 -0.752476,-8.94632 -0.201507,-11.33938 0.297596,-1.29256 0.643373,-3.22324 0.768393,-4.29039 0.2922,-2.49416 1.948205,-5.84954 3.855407,-7.81178 0.825125,-0.84894 2.596917,-2.07825 3.937317,-2.7318 2.290443,-1.11678 2.746306,-1.2055 7.575921,-1.4744 4.092493,-0.22786 5.529739,-0.44925 7.05868,-1.08733 1.781587,-0.74351 2.44579,-0.80222 9.222775,-0.81531 7.217362,-0.0139 7.29761,-0.0224 6.849339,-0.71966 -1.508729,-2.34684 -2.340546,-4.08716 -2.679946,-5.60697 -0.212048,-0.94953 -0.772543,-2.57249 -1.245545,-3.60658 -0.473002,-1.03409 -0.966175,-2.32095 -1.095939,-2.85969 -0.129765,-0.53875 -0.627154,-1.76198 -1.10531,-2.71829 -1.747428,-3.49487 -1.911896,-4.35451 -2.047674,-10.70277 -0.160377,-7.49837 0.235052,-9.11686 3.277965,-13.41673 2.687893,-3.79819 3.988725,-5.78281 4.906446,-7.48554 1.512535,-2.80633 2.982754,-4.8538 4.077178,-5.67798 0.61503,-0.46316 3.490716,-3.2006 6.390415,-6.0832 3.501076,-3.48043 5.819596,-5.49637 6.901719,-6.00101 0.896246,-0.41796 2.502664,-1.40735 3.569817,-2.19865 1.847353,-1.36983 5.095224,-2.96342 6.039693,-2.96342 0.707552,0 5.343211,-2.47426 6.30753,-3.36662 0.485069,-0.44887 1.728903,-1.23953 2.764074,-1.75702 3.1726284,-1.58603 6.5490766,-4.7664 7.8363888,-7.3813 l 1.1239637,-2.28309 0.046815,-8.92897 0.046815,-8.92896 1.1937639,-2.42529 1.1937639,-2.42529 -0.7713501,-0.58183 c -0.4242426,-0.32001 -1.6758114,-0.85554 -2.781264,-1.19008 -1.1054526,-0.33453 -2.8830389,-1.23871 -3.9501917,-2.00927 -1.0671535,-0.77057 -2.7340285,-1.81732 -3.7041675,-2.32612 -0.970139,-0.5088 -2.273323,-1.30732 -2.895966,-1.7745 -0.622642,-0.46718 -2.210142,-1.39951 -3.527778,-2.07186 -1.476239,-0.75327 -3.353052,-2.16051 -4.890125,-3.66661 -1.899165,-1.86091 -2.867299,-2.53829 -4.056945,-2.83856 -2.598111,-0.65575 -4.889358,-1.85188 -6.601381,-3.44619 -0.893195,-0.83178 -1.823949,-1.51233 -2.068344,-1.51233 -0.474558,0 -1.172382,2.06962 -1.189479,3.52777 -0.0057,0.48507 -0.416284,1.83445 -0.912437,2.99862 -0.496153,1.16416 -1.182215,3.14854 -1.524582,4.40972 -0.342366,1.26118 -1.021228,3.0868 -1.508582,4.05694 -0.487353,0.97014 -1.165807,2.66773 -1.507675,3.77242 -0.341868,1.10469 -1.150185,2.77157 -1.79626,3.70417 -0.646076,0.9326 -1.745802,2.80689 -2.443837,4.16508 -1.001776,1.9492 -2.160869,3.33694 -5.501822,6.58717 -2.327967,2.26475 -4.899297,4.46519 -5.714066,4.88988 -0.81477,0.42468 -2.196747,1.36365 -3.071061,2.08661 -0.874314,0.72296 -2.435671,1.76927 -3.469681,2.32515 -1.034011,0.55587 -3.131934,2.24257 -4.662052,3.74821 -3.021579,2.97324 -4.354985,3.79946 -7.579658,4.69658 -2.613857,0.72719 -5.796154,2.03639 -5.804196,2.38785 -0.0033,0.14472 0.999694,1.35903 2.2289,2.69847 2.514809,2.74034 3.97069,5.48175 4.323453,8.14101 0.202015,1.52287 0.49969,2.06516 1.942308,3.53846 2.075713,2.11987 3.022849,3.89207 4.053157,7.58394 0.433186,1.55223 1.119535,3.75968 1.52522,4.90546 1.190741,3.36301 0.843149,7.1396 -0.986513,10.71842 -0.984505,1.9257 -1.934177,3.02797 -3.920323,4.55029 -2.205013,1.69007 -5.54474,4.66647 -6.65543,5.93139 -0.511111,0.58208 -2.053963,2.16958 -3.42856,3.52778 -1.987392,1.96367 -2.70511,2.97521 -3.504301,4.93889 -0.552769,1.35819 -1.223129,2.73011 -1.489691,3.04872 -0.696609,0.8326 -2.904276,5.99746 -2.909378,6.80652 -0.0024,0.37566 -0.224929,1.64566 -0.494577,2.82222 -0.634887,2.77021 -1.282567,7.04866 -1.609189,10.62999 -0.265117,2.90693 -1.408849,6.07962 -2.63293,7.30371 -0.337482,0.33748 -1.165097,1.67165 -1.839145,2.96482 -0.674047,1.29317 -1.695951,2.94516 -2.270891,3.67109 -1.34356,1.69639 -1.9524,3.20055 -2.27296,5.61543 -0.14166,1.06715 -0.63486,2.61941 -1.09601,3.44947 -0.46115,0.83006 -1.17884,2.57631 -1.59487,3.88056 -1.02191,3.20362 -2.13177,5.12567 -4.22813,7.32218 -0.96831,1.01457 -2.10888,2.3077 -2.53461,2.87362 -1.11697,1.4848 -7.5739,7.94187 -8.65444,8.65463 -1.04967,0.6924 -4.01569,3.30393 -7.52752,6.62787 l -2.42269,2.29306 0.43217,4.40972 c 0.51807,5.28622 0.52796,8.46418 0.0417,13.40556 -0.477,4.84761 -1.43169,7.57334 -3.39793,9.70138 -0.35855,0.38806 -1.15356,1.73327 -1.7667,2.98936 -0.61313,1.25608 -1.96178,3.16108 -2.99699,4.23333 -1.0352,1.07225 -2.28357,2.57028 -2.77413,3.32898 -0.49057,0.75869 -1.38983,1.78915 -1.99836,2.28991 -0.60853,0.50076 -3.50941,3.31463 -6.44639,6.25305 -3.98099,3.98294 -5.91086,5.64466 -7.58321,6.52954 -1.87366,0.99139 -2.5167,1.59379 -3.90307,3.65639 -2.58244,3.84208 -5.06685,5.72138 -8.92653,6.75239 -6.55274,1.75039 -13.18708,-1.46523 -16.27694,-7.88932 -1.21803,-2.53239 -1.24595,-2.68578 -1.12806,-6.19792 0.14302,-4.26096 0.9649,-6.40257 3.59253,-9.36114 0.89989,-1.01323 1.93987,-2.43755 2.31107,-3.16514 0.854,-1.67399 3.70203,-4.35357 5.71865,-5.3804 0.85218,-0.43392 2.2633,-1.36146 3.13583,-2.06121 2.41844,-1.93952 11.6362,-11.33199 13.23025,-13.48099 1.36194,-1.83609 1.41011,-1.99458 1.38233,-4.54822 -0.0356,-3.27609 -0.63841,-7.56375 -1.36365,-9.69989 -0.80698,-2.37691 -0.63537,-6.51428 0.55608,-13.40705 0.75066,-4.34271 3.82481,-8.2344 7.98337,-10.10645 1.30789,-0.58878 2.77486,-1.25444 3.25993,-1.47925 0.48507,-0.22481 1.59632,-1.13602 2.46944,-2.0249 0.87313,-0.88889 2.49091,-2.27602 3.59508,-3.0825 1.98066,-1.44668 9.09127,-8.38508 10.0177,-9.77508 0.61737,-0.9263 2.615,-7.41202 2.615,-8.49015 0,-1.23604 1.60632,-4.63329 3.14554,-6.65259 0.74656,-0.97941 1.63655,-2.33637 1.97776,-3.01547 0.3412,-0.6791 1.07429,-1.89832 1.62909,-2.70939 0.82236,-1.20223 1.00984,-1.85399 1.01477,-3.52778 0.003,-1.12921 0.3181,-3.24373 0.69951,-4.69894 0.3814,-1.45521 0.69626,-3.20146 0.69969,-3.88056 0.003,-0.67909 0.34251,-2.10784 0.75354,-3.175 0.41103,-1.06715 0.97448,-3.01823 1.25211,-4.33573 0.27763,-1.3175 0.98149,-3.2225 1.56411,-4.23333 0.58263,-1.01084 1.37106,-2.55226 1.75207,-3.42538 0.381,-0.87313 1.00765,-2.18281 1.39255,-2.91042 1.80912,-3.41992 2.14357,-4.09543 2.92561,-5.90903 0.63941,-1.48284 1.89403,-3.01559 5.32164,-6.50137 l 4.48498,-4.5611 -1.07363,-2.40112 c -0.5905,-1.32062 -1.18068,-3.31192 -1.31151,-4.42511 -0.2121,-1.80465 -0.42197,-2.211 -1.93664,-3.74976 -1.57907,-1.60416 -3.83008,-5.39588 -3.83008,-6.45157 0,-0.25337 -0.53838,-1.45833 -1.19641,-2.67768 -1.85866,-3.44419 -2.06234,-4.88685 -1.69069,-11.97546 0.31065,-5.92503 0.37327,-6.29258 1.44201,-8.4635 0.61449,-1.24821 1.70696,-2.90561 2.4277,-3.68312 0.72075,-0.7775 1.86138,-2.19474 2.53475,-3.14942 2.01662,-2.85911 3.69547,-4.19363 6.879007,-5.46814 1.158348,-0.46373 2.939817,-1.3452 3.95882,-1.95881 1.019002,-0.61361 2.905446,-1.41443 4.192097,-1.77961 1.705805,-0.48413 2.528284,-0.92835 3.036932,-1.64022 0.665919,-0.93199 4.524057,-3.78576 5.119346,-3.78666 0.156167,-2.4e-4 0.76019,-0.41156 1.342273,-0.91405 0.582084,-0.50249 2.000061,-1.46676 3.151062,-2.14282 3.867326,-2.27154 6.328487,-4.76537 8.113193,-8.22089 0.886674,-1.71676 1.612135,-3.30264 1.612135,-3.52417 0,-0.22153 0.463509,-1.62506 1.03002,-3.11896 1.597016,-4.21135 2.853833,-8.58993 2.852105,-9.93633 -0.002,-1.55542 0.90403,-4.00172 2.187961,-5.90756 l 1.001119,-1.48605 -0.977964,-0.60917 c -0.53788,-0.33504 -1.623993,-1.1219 -2.413585,-1.74858 -0.789592,-0.62668 -2.218342,-1.56135 -3.175,-2.07705 -0.956658,-0.5157 -2.771254,-1.95733 -4.032434,-3.20363 -1.261181,-1.24629 -3.251065,-3.17877 -4.421965,-4.2944 -1.1709,-1.11562 -2.423145,-2.66341 -2.782767,-3.43952 -0.359621,-0.77611 -1.3563,-2.35296 -2.214841,-3.5041 -0.858542,-1.15115 -1.792477,-2.64703 -2.075412,-3.32419 -0.582462,-1.39403 -2.696122,-4.10963 -4.021022,-5.16616 -0.701899,-0.55972 -3.972232,-3.82423 -9.451385,-9.43457 -0.140921,-0.1443 -1.208721,-1.18602 -2.372887,-2.31493 -1.164168,-1.12891 -2.432578,-2.67773 -2.818688,-3.44181 -0.38612,-0.76408 -1.30846,-2.16961 -2.04965,-3.1234 -2.21551,-2.85099 -3.40808,-5.86533 -3.41775,-8.6387 -0.003,-0.95061 -0.36403,-1.58112 -1.73222,-3.02778 -0.95042,-1.00492 -2.16345,-2.68714 -2.69562,-3.73825 -0.53217,-1.05111 -1.50405,-2.56643 -2.15974,-3.36737 -1.43435,-1.7521 -2.94161,-5.31186 -2.94161,-6.94733 0,-0.65212 -0.24839,-1.96496 -0.55198,-2.91743 -0.30359,-0.95247 -0.68107,-3.95426 -0.83885,-6.67065 -0.21492,-3.70023 -0.48387,-5.46974 -1.07241,-7.05555 -0.43205,-1.16417 -0.92338,-2.91042 -1.09185,-3.88056 -0.16847,-0.97014 -0.46225,-2.08139 -0.65285,-2.46944 -1.15196,-2.34539 -1.4365,-3.64484 -1.4365,-6.56029 0,-2.63332 0.16371,-3.53485 1.04455,-5.75223 l 1.04454,-2.6295 0.0705,-9.63872 0.0705,-9.63871 -0.9659,-2.03142 c -1.24053,-2.60901 -1.66826,-5.61593 -1.20396,-8.46372 0.19771,-1.21267 0.46347,-3.63805 0.59056,-5.38973 0.2718,-3.74597 1.55483,-6.76775 4.06478,-9.57334 0.83927,-0.93812 1.97197,-2.42005 2.51712,-3.29318 0.54515,-0.87312 1.56173,-2.05853 2.25907,-2.63423 2.63464,-2.17507 4.63043,-4.46351 5.64426,-6.4719 0.57683,-1.14269 1.495,-2.60033 2.04038,-3.2392 1.4412,-1.68825 3.73825,-5.40366 5.35584,-8.66289 1.703758,-3.43287 3.96407,-5.68344 7.31622,-7.28467 1.674738,-0.79997 2.626985,-1.52225 3.27755,-2.48602 0.50434,-0.74715 1.630088,-2.1656 2.501662,-3.1521 0.871574,-0.98651 1.869538,-2.26207 2.217699,-2.83457 1.455113,-2.39274 3.932847,-4.31927 8.369464,-6.50756 2.424792,-1.19599 4.805588,-2.29074 5.290657,-2.43279 0.48507,-0.14204 1.464762,-0.62604 2.177095,-1.07556 1.995077,-1.25899 5.346832,-2.25434 7.601361,-2.25732 1.985876,-0.003 6.066076,-1.00733 6.910888,-1.70174 1.148437,-0.94398 4.427862,-1.45821 9.063435,-1.4212 3.511845,0.028 5.148546,-0.10559 6.232561,-0.50887 1.455534,-0.54149 5.042543,-2.82793 5.436485,-3.46535 0.112369,-0.18181 0.07508,-1.23841 -0.08286,-2.348 -0.518991,-3.64602 0.303865,-7.07644 2.47009,-10.29763 0.721378,-1.07269 1.613246,-2.66472 1.981929,-3.53784 0.830527,-1.96688 2.139752,-3.78875 3.535033,-4.91924 0.585347,-0.47426 2.254891,-2.09035 3.7101,-3.59131 1.455208,-1.50096 3.345522,-3.0736 4.200698,-3.49475 3.371474,-1.66037 4.055385,-1.72532 17.49513644,-1.66165 13.01528456,0.0617 15.65112156,-0.13013 19.75555556,-1.43758 2.510866,-0.79982 20.895357,-0.96875 23.929189,-0.21988 1.131331,0.27925 2.798206,0.51109 3.704167,0.51518 0.905961,0.004 2.758451,0.40345 4.116646,0.88746 4.440657,1.58249 11.810925,2.94861 16.05139,2.97521 2.863726,0.018 4.375012,0.43121 7.920543,2.16579 1.542897,0.75484 3.007817,1.37243 3.25538,1.37243 0.247562,0 1.287067,0.38907 2.310012,0.8646 1.022944,0.47552 2.812399,1.17442 3.976565,1.55309 1.164167,0.37868 2.831042,0.93658 3.704167,1.23978 3.716217,1.29049 6.540964,2.06756 8.546276,2.35101 1.19925,0.16951 3.272746,0.8544 4.713236,1.55681 1.41459,0.68979 2.66918,1.25416 2.78797,1.25416 0.1188,0 1.43828,0.4599 2.93217,1.022 1.4939,0.56209 3.43056,1.22949 4.30368,1.48309 0.87313,0.2536 2.38125,0.82402 3.35139,1.26761 0.97014,0.44358 2.0517,0.80807 2.40346,0.80996 0.96822,0.005 4.32369,1.74623 5.80651,3.01275 0.72327,0.61777 2.02941,1.48453 2.90253,1.92613 0.87313,0.44161 2.3332,1.37711 3.24461,2.07889 0.91142,0.70177 2.62521,1.82293 3.80844,2.49146 1.20629,0.68156 2.85265,2.03641 3.74784,3.08425 1.33847,1.56668 1.92033,1.9581 3.5999,2.4216 3.29841,0.91025 5.55711,2.2198 8.10807,4.70088 1.32914,1.29274 3.1187,2.64525 3.9768,3.00558 5.83577,2.45055 7.91796,4.0817 9.84337,7.71113 0.69277,1.30589 1.27333,1.80424 3.3334,2.86136 1.37198,0.70403 3.23048,1.79635 4.12998,2.42738 3.20143,2.24588 11.54297,6.82346 13.0288,7.1498 0.62942,0.13825 1.95307,0.71522 2.94146,1.28216 0.98838,0.56694 2.19393,1.20487 2.679,1.41762 4.18985,1.83765 5.5157,2.66335 7.53492,4.69254 2.0788,2.08906 4.53593,3.71492 5.61427,3.71492 0.26252,0 1.53015,0.635 2.81696,1.41111 1.28681,0.77611 2.51044,1.41111 2.71917,1.41111 0.77587,0 5.01258,2.27572 6.00837,3.22735 1.92171,1.83649 10.0605,6.54526 13.5827,7.85839 2.29893,0.85708 4.65436,2.58458 6.52031,4.7821 1.11201,1.3096 1.87644,1.86111 2.95769,2.13389 0.80196,0.20231 2.48999,0.89748 3.75117,1.5448 1.26118,0.64733 2.85859,1.27828 3.54979,1.40212 0.6912,0.12384 2.35808,0.90019 3.70417,1.72523 1.34608,0.82504 3.48711,2.00831 4.75783,2.62949 3.11861,1.5245 4.84701,3.26612 6.89964,6.95239 0.94901,1.7043 2.2964,3.59741 2.9942,4.2069 0.6978,0.6095 1.72981,1.50505 2.29335,1.99012 1.4412,1.2405 2.73272,3.08285 3.46225,4.93889 0.34319,0.87312 1.12622,2.30187 1.74007,3.175 1.79656,2.55538 3.05426,5.76103 3.05426,7.78477 0,0.58153 0.25971,1.64755 0.57715,2.36892 0.41434,0.9416 0.60723,2.61705 0.6838,5.93936 0.0928,4.0246 0.22633,4.92123 1.02485,6.87917 0.57656,1.41372 1.03334,3.43271 1.22768,5.42639 0.33467,3.43342 0.80905,5.79693 1.66393,8.29028 0.29937,0.87312 0.74691,2.77812 0.99454,4.23333 0.24764,1.45521 0.69629,3.59833 0.99701,4.7625 0.81843,3.16834 0.6599,28.45277 -0.19465,31.04445 -0.31988,0.97013 -0.7618,2.79576 -0.98206,4.05694 -0.22026,1.26118 -0.76106,2.92806 -1.20179,3.70417 -1.35943,2.39394 -1.90274,3.44201 -3.04722,5.8782 -0.60731,1.29273 -1.40338,2.67156 -1.76907,3.06408 -0.36568,0.39251 -1.37406,1.91319 -2.24083,3.37928 -1.77804,3.00743 -2.62465,3.9511 -4.7463,5.29043 -0.81371,0.51368 -2.069,1.44959 -2.78951,2.07981 -1.70625,1.4924 -3.51791,2.77237 -4.83781,3.41799 -0.58209,0.28473 -1.77271,1.10488 -2.64584,1.82256 -0.87312,0.71769 -2.38125,1.67993 -3.35138,2.13831 -0.97014,0.45838 -2.78401,1.50246 -4.03082,2.32017 -1.917,1.25725 -4.99337,2.53556 -6.10209,2.53556 -0.1669,0 -1.35206,0.49025 -2.63367,1.08946 -1.67805,0.78455 -3.06334,1.1449 -4.94972,1.28757 -2.39914,0.18145 -2.75834,0.31447 -4.26967,1.58125 -1.71189,1.43489 -5.3208,3.45005 -6.17862,3.45005 -0.27041,0 -0.89246,0.31527 -1.38232,0.7006 -2.24182,1.76341 -4.52791,2.56508 -7.81712,2.74125 -2.59609,0.13904 -3.4066,0.32167 -4.26375,0.9607 -1.70536,1.27139 -4.47493,2.55917 -6.79918,3.16145 -1.18949,0.30822 -2.84503,0.85157 -3.67898,1.20745 -0.83396,0.35587 -2.09597,0.75464 -2.80447,0.88615 -0.95026,0.17639 -1.63488,0.66222 -2.60987,1.85207 -1.87153,2.28395 -2.4259,2.74802 -4.78451,4.00514 -1.81849,0.96925 -2.23175,1.39211 -3.16255,3.23601 -0.58889,1.16659 -1.78108,2.83144 -2.6493,3.69966 -1.5797,1.5797 -5.35818,3.65427 -6.65659,3.6548 -0.37944,1.5e-4 -1.88756,0.53403 -3.35139,1.18639 -1.46382,0.65237 -3.614,1.4238 -4.77817,1.71431 -1.16416,0.2905 -2.83104,0.78401 -3.70416,1.09669 -0.87313,0.31269 -2.00399,0.65049 -2.51303,0.75067 -0.50905,0.10019 -1.27601,0.46595 -1.70436,0.81281 l -0.77883,0.63066 1.79255,3.48899 c 1.43061,2.78451 1.79256,3.83528 1.79256,5.204 0,3.32326 2.27833,10.47039 4.11245,12.90077 0.47744,0.63266 1.30565,1.98203 1.84047,2.99861 0.53481,1.01658 1.54386,2.59693 2.24234,3.51189 1.5314,2.00602 2.6413,4.84515 3.06573,7.84217 0.17282,1.22037 0.5673,2.70825 0.87662,3.3064 0.39298,0.75994 0.56239,2.04812 0.56239,4.27635 0,3.92151 -1.00834,6.76298 -3.39015,9.55334 -0.87239,1.02202 -1.9121,2.49713 -2.31048,3.27802 -1.036,2.03072 -4.01945,4.79645 -6.2878,5.82893 -1.07046,0.48725 -2.72288,1.41727 -3.67204,2.06673 -0.94917,0.64946 -2.29854,1.43191 -2.99862,1.73877 -0.70007,0.30687 -1.63633,0.73069 -2.08058,0.94184 -0.87515,0.41594 -2.88618,2.25751 -4.32948,3.96464 -0.49712,0.588 -1.40709,1.46292 -2.02214,1.94428 l -1.11828,0.87518 1.05926,1.5835 c 0.58259,0.87093 1.45311,2.8625 1.93449,4.42571 0.89293,2.89968 2.06789,5.01063 4.01416,7.21196 0.60042,0.6791 1.09204,1.41637 1.09249,1.63837 4.6e-4,0.22201 0.8002,1.25389 1.77721,2.29306 1.02542,1.09067 2.4511,3.23162 3.37245,5.0644 0.87784,1.74625 2.04088,3.94384 2.58455,4.88352 0.54366,0.93968 1.18912,2.60655 1.43435,3.70416 0.24522,1.09761 0.81033,2.82063 1.25578,3.82892 1.10843,2.50898 1.28507,4.6338 0.93269,11.21952 -0.28352,5.29876 -0.37,5.78487 -1.41201,7.9375 -0.61049,1.26118 -1.21807,2.84868 -1.35016,3.52777 -0.34052,1.75062 -1.43545,4.20806 -2.49227,5.59362 -0.49698,0.65158 -1.42591,2.2579 -2.06428,3.56962 -0.63837,1.31171 -1.90161,3.16003 -2.8072,4.10738 -0.90558,0.94734 -2.28177,2.64795 -3.0582,3.77912 -0.99751,1.45328 -2.15331,2.54083 -3.93952,3.70687 -3.66571,2.393 -5.52145,3.96789 -5.52145,4.68584 0,0.87234 0.68647,2.34769 1.86291,4.00372 0.54713,0.77018 1.30838,2.10927 1.69167,2.97575 0.38329,0.86648 1.2301,2.37946 1.88181,3.36217 2.3012,3.46997 2.42196,3.99725 2.55021,11.13536 0.0887,4.93367 -0.0106,7.02838 -0.40689,8.58335 -0.28828,1.13133 -0.52604,2.56008 -0.52834,3.175 -0.007,1.84752 -0.93567,4.76715 -2.17732,6.84467 -1.29093,2.15996 -3.62487,4.19508 -6.61962,5.77208 -1.07723,0.56725 -2.70905,1.57111 -3.62627,2.23079 -0.91722,0.65968 -1.83575,1.25544 -2.04118,1.32391 -0.49794,0.16598 -1.37111,2.67174 -1.39268,3.99659 -0.0203,1.24954 0.78932,3.97269 3.18922,10.72629 0.37268,1.04876 0.67759,2.25889 0.67759,2.68918 0,0.43029 0.34649,1.55658 0.76998,2.50288 1.17357,2.62237 1.43222,6.81698 1.53094,24.82748 0.0874,15.94132 0.11193,16.46389 0.87045,18.52084 0.57918,1.5706 0.85631,3.390816 1.07421,7.055552 0.21127,3.55334 0.50354,5.520773 1.04181,7.013057 0.41148,1.140792 0.86663,3.05827 1.01143,4.261063 0.19946,1.656833 0.49348,2.435155 1.21301,3.211143 1.19762,1.291574 2.52971,4.086208 3.22295,6.761539 0.64637,2.494412 1.38072,4.019585 2.88317,5.988078 0.62216,0.815157 1.58001,2.402657 2.12856,3.527778 0.89954,1.845048 0.99796,2.40896 1.00356,5.749843 0.006,3.524756 -0.0527,3.82169 -1.21066,6.130606 -1.50368,2.998349 -3.62832,5.107896 -6.63541,6.588282 -1.94739,0.958697 -2.77209,1.151663 -5.33899,1.249226 -1.66971,0.06346 -3.54805,-0.01634 -4.17409,-0.177337 z M 86.23173,-391.19083 c 2.134306,-0.7294 4.515556,-1.65822 5.291667,-2.06404 1.351901,-0.70689 1.966205,-0.74041 14.640283,-0.79879 10.88707,-0.0501 13.61291,-0.16152 15.39675,-0.62914 1.19217,-0.31252 2.9493,-0.56821 3.90472,-0.56821 0.95542,0 2.5916,-0.25375 3.63596,-0.56389 1.50939,-0.44824 2.73439,-0.5149 5.97305,-0.325 2.72768,0.15993 4.59892,0.10189 5.66174,-0.17563 1.58296,-0.41332 3.61127,-0.7629 8.29028,-1.42879 1.35819,-0.19329 3.44916,-0.80844 4.6466,-1.36701 1.19743,-0.55856 3.10243,-1.21931 4.23333,-1.46832 4.14478,-0.91265 5.81797,-1.81685 7.2194,-3.9014 1.53202,-2.27879 3.5493,-3.98167 6.65219,-5.6154 1.25972,-0.66327 2.9266,-1.89895 3.70417,-2.74596 3.16541,-3.44808 4.19005,-4.33601 6.10833,-5.2933 1.10451,-0.5512 2.57351,-1.08965 3.26444,-1.19657 0.69094,-0.10692 2.06834,-0.58617 3.0609,-1.06499 0.99256,-0.47883 2.89404,-1.13756 4.22553,-1.46386 1.74731,-0.4282 3.00598,-1.03261 4.52382,-2.17232 3.70005,-2.77828 5.4419,-3.41602 9.84427,-3.60428 3.6833,-0.15751 3.95084,-0.22233 5.82083,-1.41027 1.07804,-0.68484 2.65984,-1.8562 3.5151,-2.60302 2.41104,-2.10534 5.43731,-3.44057 8.32283,-3.67215 5.04025,-0.4045 9.51804,-1.98911 13.64596,-4.82907 0.90838,-0.62495 2.33713,-1.57336 3.175,-2.10757 1.43395,-0.91426 2.42936,-1.5975 5.12225,-3.51582 0.62116,-0.4425 1.55898,-1.5983 2.08404,-2.56844 0.52506,-0.97014 1.23424,-2.16714 1.57596,-2.66001 0.34171,-0.49286 0.94594,-1.8598 1.34272,-3.03763 0.65926,-1.95698 0.7243,-3.05005 0.75485,-12.68582 0.0226,-7.12841 -0.0989,-10.94431 -0.3751,-11.77904 -0.22468,-0.67909 -0.61443,-2.2666 -0.86609,-3.52778 -0.25166,-1.26118 -0.79148,-3.16394 -1.19959,-4.22835 -0.40811,-1.06441 -0.74202,-2.609 -0.74202,-3.43242 0,-2.04895 -1.02047,-7.02596 -1.79273,-8.74339 -1.09831,-2.44256 -1.37562,-4.16258 -1.31171,-8.13583 0.0348,-2.16111 -0.13578,-4.66503 -0.38765,-5.69167 -0.55085,-2.24533 -2.18312,-4.60835 -4.29949,-6.22431 -1.82688,-1.39493 -3.3641,-3.25843 -4.37925,-5.30876 -0.56221,-1.13552 -1.20726,-1.69189 -3.175,-2.73851 -1.35819,-0.72241 -2.75766,-1.32346 -3.10993,-1.33567 -0.35226,-0.0122 -1.86039,-0.59078 -3.35139,-1.28571 -1.49099,-0.69493 -3.68793,-1.56975 -4.88208,-1.94405 -2.58884,-0.81145 -5.91071,-3.16457 -7.29288,-5.16608 -0.74522,-1.07915 -1.50334,-1.64455 -2.99861,-2.23634 -1.10067,-0.43561 -3.0331,-1.44924 -4.29428,-2.25251 -1.26118,-0.80327 -3.22093,-1.92876 -4.355,-2.50108 -1.13407,-0.57233 -2.56282,-1.51898 -3.175,-2.10366 -1.38561,-1.32339 -4.98016,-3.46843 -6.7994,-4.05754 -1.28483,-0.41605 -4.11086,-1.83947 -4.89699,-2.46652 -0.19402,-0.15476 -1.0125,-0.45775 -1.81884,-0.67331 -1.96032,-0.52404 -5.29404,-2.80012 -6.85928,-4.68313 -0.77077,-0.92725 -2.08783,-1.92214 -3.35138,-2.53159 -4.75845,-2.29514 -7.09834,-3.33655 -8.43161,-3.75267 -0.77611,-0.24223 -2.44299,-1.10337 -3.70417,-1.91364 -1.26118,-0.81028 -3.16618,-1.92705 -4.23333,-2.48171 -1.06715,-0.55467 -2.51274,-1.45441 -3.21241,-1.99944 -0.69968,-0.54503 -1.70388,-1.1551 -2.23156,-1.35573 -0.52768,-0.20062 -1.69125,-0.86828 -2.58572,-1.48369 -0.89447,-0.61541 -2.58871,-1.58513 -3.76499,-2.15493 -3.01625,-1.46109 -4.55185,-2.78327 -6.27305,-5.40121 -1.36009,-2.06869 -1.75722,-2.40212 -4.36373,-3.66375 -1.98722,-0.96186 -3.43824,-1.98054 -4.72673,-3.31836 -1.89186,-1.96428 -2.25404,-2.17097 -5.61955,-3.20694 -2.45689,-0.75628 -5.12959,-2.47956 -6.89723,-4.44712 -1.74312,-1.94027 -4.81288,-4.3486 -6.82173,-5.35187 -0.83983,-0.41943 -2.11195,-1.26224 -2.82693,-1.87292 -1.60597,-1.37167 -3.57753,-2.36816 -5.88609,-2.97503 -0.97014,-0.25503 -2.31952,-0.72666 -2.99862,-1.04808 -0.67909,-0.32141 -2.107843,-0.79429 -3.174996,-1.05084 -1.067153,-0.25655 -2.875471,-0.93471 -4.018484,-1.50701 -2.704095,-1.35393 -6.604168,-2.62485 -9.000138,-2.93287 -1.048367,-0.13478 -2.873992,-0.70294 -4.056944,-1.26257 -1.182953,-0.55964 -2.468324,-1.01996 -2.856379,-1.02293 -0.853132,-0.007 -3.296649,-0.83604 -5.059888,-1.71768 -0.709562,-0.35478 -1.845737,-0.75085 -2.524835,-0.88015 -0.679097,-0.1293 -2.550117,-0.88614 -4.157822,-1.68187 -2.677563,-1.32526 -3.140674,-1.44257 -5.513316,-1.39664 -1.476264,0.0286 -3.481047,-0.198 -4.661622,-0.52686 -1.139274,-0.31736 -3.231021,-0.71723 -4.648326,-0.88861 -1.417305,-0.17138 -3.317271,-0.64887 -4.222146,-1.06109 -0.904875,-0.41222 -2.285262,-0.82624 -3.067526,-0.92006 -0.782264,-0.0938 -2.131182,-0.40129 -2.997594,-0.68327 -2.428061,-0.79024 -16.542024,-0.75511 -18.709428,0.0466 -0.873125,0.32296 -2.936875,0.72211 -4.586111,0.88702 -1.649236,0.16491 -3.739911,0.46513 -4.645943,0.66716 -0.975573,0.21753 -4.2123746,0.29989 -7.9375005,0.20196 -3.4595926,-0.091 -7.441106,-0.0651 -8.8478075,0.0574 l -2.557639,0.22277 -0.00531,3.57452 c -0.00563,3.78629 -0.3108763,5.07773 -1.8040109,7.63233 -0.5100579,0.87265 -1.0367976,2.09433 -1.1705327,2.71484 -0.3323164,1.5419 -2.0840854,4.70247 -3.3275644,6.00366 -0.56334,0.58948 -1.795566,1.59619 -2.738279,2.23713 -0.942714,0.64094 -2.442875,1.81296 -3.333693,2.60448 -0.890818,0.79152 -2.537476,1.88853 -3.65924,2.4378 -1.121765,0.54928 -2.853539,1.50497 -3.848388,2.12376 -3.020719,1.87887 -5.254966,2.68511 -7.45326,2.68957 -0.582083,10e-4 -1.918821,0.3292 -2.970529,0.72893 -1.59432,0.60596 -2.591272,0.71306 -5.997222,0.64428 -3.64578,-0.0736 -4.251229,0.003 -5.630718,0.71499 -2.383519,1.22975 -4.587966,1.78615 -7.093246,1.79033 -2.0553,0.003 -2.655521,0.19013 -5.880391,1.82914 -2.177936,1.10691 -3.728765,2.12668 -3.940329,2.59101 -0.191881,0.42113 -1.171203,1.65731 -2.176271,2.74706 -1.005068,1.08975 -2.309131,2.70865 -2.897918,3.59756 -0.588787,0.88891 -1.646415,2.04512 -2.350283,2.56936 -0.703869,0.52425 -1.359137,1.03345 -1.45615,1.13157 -0.09701,0.0981 -0.909009,0.5231 -1.804434,0.94441 -1.393509,0.65566 -1.797809,1.10385 -2.806474,3.11114 -0.648137,1.28983 -1.523923,2.69137 -1.946191,3.11455 -0.422269,0.42317 -1.281536,1.64253 -1.909483,2.70968 -0.627947,1.06716 -1.58035,2.49591 -2.11645,3.175 -0.536101,0.6791 -1.344119,2.02848 -1.795595,2.99861 -0.514061,1.10462 -1.895463,2.81872 -3.695971,4.58612 -1.581307,1.55222 -3.382005,3.40801 -4.001552,4.12397 l -1.126449,1.30176 0.665287,1.34408 c 1.412606,2.85388 1.941883,5.3383 1.703542,7.99639 -0.124274,1.38595 -0.255711,6.17116 -0.292082,10.6338 l -0.06613,8.11388 1.04113,2.29306 c 0.946789,2.08527 1.039602,2.6287 1.024267,5.99722 -0.01522,3.34399 -0.112327,3.88859 -0.998658,5.60081 l -0.981796,1.89663 0.767527,1.80753 c 0.611005,1.43892 0.829771,2.92837 1.07275,7.30373 0.167873,3.0229 0.463434,5.91231 0.656802,6.42091 0.478604,1.25882 3.914271,5.78773 5.564371,7.33497 1.981674,1.85815 3.607464,5.34487 3.871441,8.30282 0.119333,1.33717 0.453267,2.89916 0.742075,3.4711 0.406685,0.80538 4.955516,5.71034 7.869044,8.48511 0.20373,0.19403 1.677365,1.62278 3.274744,3.175 1.597379,1.55223 3.378172,3.2191 3.957318,3.70417 1.27671,1.06932 2.583161,2.87092 3.412478,4.7058 0.338927,0.74989 1.087773,1.9588 1.664102,2.68647 0.576328,0.72768 1.456181,2.13598 1.955228,3.12956 1.353429,2.69461 5.494286,6.65811 8.725509,8.35178 0.740341,0.38806 2.016342,1.23046 2.835558,1.87201 1.858518,1.45546 6.627045,4.28783 7.232182,4.29572 0.708057,0.009 4.476588,2.00053 5.015972,2.65045 0.267245,0.32201 1.289621,0.99032 2.271948,1.48514 0.982326,0.49482 2.227571,1.21115 2.76721,1.59185 0.53964,0.3807 2.24355,1.30908 3.786468,2.06307 2.031255,0.99262 3.472003,2.0389 5.221548,3.79192 1.975665,1.97959 2.732565,2.49739 4.151033,2.83975 2.914281,0.70338 5.484054,2.21926 7.9028586,4.66182 2.5753526,2.60064 4.2028212,3.84404 5.9587708,4.55254 0.6549001,0.26425 2.08365017,1.12768 3.1750002,1.91875 1.09135,0.79106 2.4605227,1.67278 3.0426061,1.95936 0.5820833,0.28658 1.6139584,0.84597 2.2930556,1.24308 0.6790973,0.39712 1.8697223,0.92982 2.6458335,1.18379 0.7761102,0.25397 1.9667352,0.71502 2.6458332,1.02456 0.679097,0.30953 2.020977,0.68876 2.981956,0.84274 0.960978,0.15397 2.89885,0.84149 4.306381,1.52784 2.481049,1.20981 2.64843,1.24122 5.484711,1.0292 2.199255,-0.16439 3.494844,-0.069 5.218619,0.38437 1.261181,0.33167 3.404306,0.73374 4.7625,0.89347 1.358195,0.15973 3.02507,0.42915 3.704167,0.59872 0.679098,0.16956 10.839098,0.28264 22.577779,0.25129 l 21.343057,-0.057 z m -51.681946,-12.90914 c -1.740351,-0.50744 -3.141271,-1.18409 -4.768101,-2.30301 -0.773031,-0.53168 -2.29937,-1.40459 -3.391864,-1.93979 -1.092494,-0.53521 -2.838744,-1.65844 -3.880556,-2.49609 -1.041811,-0.83764 -2.523395,-1.84023 -3.292407,-2.22798 -0.769013,-0.38775 -2.407587,-1.69719 -3.641277,-2.90987 -1.233689,-1.21267 -2.369121,-2.20486 -2.523181,-2.20486 -0.66238,0 -4.2473066,-3.88781 -5.0583637,-5.48573 -0.4874773,-0.96042 -1.3815182,-2.30184 -1.9867577,-2.98093 -0.6052394,-0.6791 -1.8667735,-2.74285 -2.803409,-4.58611 -0.9366354,-1.84327 -2.36643581,-4.66108 -3.17733413,-6.26181 -0.81089831,-1.60073 -1.60070937,-2.91042 -1.75513577,-2.91042 -0.3864062,0 -2.0689074,-3.71179 -2.5502213,-5.62608 -0.2169924,-0.86303 -0.3402634,-2.68865 -0.2739354,-4.05695 l 0.1205963,-2.4878 -4.0569446,-0.0469 c -7.0700577,-0.0817 -11.1013067,-2.43168 -13.9303447,-8.12058 -0.884623,-1.77888 -1.046307,-2.56542 -1.173666,-5.70946 -0.142916,-3.52805 -0.172126,-3.63901 -0.900321,-3.41985 -1.987387,0.59813 -5.101625,0.60754 -7.117475,0.0215 -4.17241,-1.21296 -6.765349,-3.16291 -8.867256,-6.66841 -0.712954,-1.18904 -1.880329,-2.87627 -2.594165,-3.7494 -3.204729,-3.91985 -4.282494,-8.95283 -2.824583,-13.19032 0.75247,-2.18709 2.114891,-4.80134 2.502226,-4.80134 0.13325,0 0.778706,-1.05042 1.434345,-2.33427 1.098112,-2.15027 2.990769,-4.46945 4.72161,-5.78565 1.341905,-1.02044 5.166748,-2.46342 6.529671,-2.46342 0.753305,0 2.68507,-0.41554 4.29281,-0.92342 2.467138,-0.77937 3.30926,-0.88893 5.398073,-0.70225 1.3612,0.12164 3.983034,0.26796 5.826298,0.32515 4.139088,0.12841 6.6054257,1.0156 9.484862,3.41189 1.1178246,0.93026 2.65571,2.01253 3.4175233,2.40505 2.27630799,1.17283 4.1248729,3.00598 5.6190748,5.57223 0.7757667,1.33235 1.8442654,2.91931 2.3744416,3.52658 1.2278394,1.40636 2.9305305,4.86591 3.2396877,6.58242 0.131158,0.72822 0.7021966,2.41378 1.2689746,3.74569 0.566778,1.33191 1.139903,3.11734 1.27361,3.96763 0.133707,0.85029 0.553045,2.26035 0.931862,3.13348 0.4266,0.98325 0.759872,2.76106 0.875592,4.67075 l 0.186832,3.08326 1.950402,0.89292 c 3.028772,1.38662 5.404307,3.63387 6.968785,6.59246 1.32989,2.51496 1.363364,2.66892 1.415293,6.50941 0.04558,3.37092 0.158556,4.0815 0.789882,4.96812 0.405182,0.56903 1.298582,2.21206 1.985333,3.6512 3.334445,6.98755 5.794958,9.71384 12.369236,13.70535 2.448374,1.4865 2.478725,1.4943 3.557102,0.91406 1.134975,-0.61069 1.764307,-1.16885 4.349408,-3.85754 0.856081,-0.89038 1.687527,-1.61888 1.847658,-1.61888 0.160132,0 0.677471,-0.59531 1.149643,-1.32292 1.290012,-1.98787 2.297014,-3.00071 4.49964,-4.52574 1.098843,-0.76081 2.979315,-2.13565 4.178827,-3.05521 3.670584,-2.81391 8.460024,-3.79949 12.243589,-2.51952 4.755627,1.60882 7.156805,3.66311 9.16719,7.84288 1.194105,2.48264 1.292172,2.92841 1.292172,5.87357 0,2.93667 -0.100042,3.39502 -1.273561,5.83487 -1.421502,2.95542 -3.033066,4.79653 -5.701769,6.5139 -1.856156,1.19448 -5.285586,4.35181 -7.105689,6.54192 -0.572176,0.68849 -1.595945,1.63821 -2.275042,2.1105 -0.679097,0.47229 -2.058935,1.74586 -3.066306,2.83016 -1.237871,1.33239 -2.610118,2.34389 -4.233334,3.12042 -1.320962,0.63194 -2.957375,1.46047 -3.636472,1.84118 -4.078151,2.28625 -5.053852,2.60037 -8.819445,2.83934 -2.037291,0.1293 -4.974167,0.32272 -6.526389,0.42983 -1.552222,0.10712 -3.377847,0.0328 -4.056944,-0.16525 z m 103.540286,-14.77142 c -2.71639,-0.12815 -5.41514,-0.40107 -5.99723,-0.6065 -1.55796,-0.54984 -3.61824,-1.76918 -4.69687,-2.77977 -0.52116,-0.48828 -1.91608,-1.43232 -3.09981,-2.09785 -1.18374,-0.66554 -2.77124,-1.77691 -3.52778,-2.46972 -0.75655,-0.69281 -1.94237,-1.56011 -2.63517,-1.92732 -0.69279,-0.36722 -2.32315,-1.63147 -3.623,-2.80946 -1.29986,-1.17798 -2.50469,-2.14178 -2.67741,-2.14178 -0.17271,0 -1.17969,-0.83344 -2.23772,-1.85208 -2.15437,-2.07417 -3.4817,-4.43558 -4.11458,-7.32014 -0.23414,-1.06715 -0.71913,-2.97215 -1.07775,-4.23333 -0.35862,-1.26119 -0.75849,-2.81699 -0.8886,-3.45735 -0.13011,-0.64036 -0.63478,-2.14431 -1.12149,-3.34211 -0.86162,-2.12047 -0.88148,-2.36386 -0.75408,-9.24266 0.12773,-6.8959 0.15414,-7.11036 1.10485,-8.96898 0.53569,-1.04728 1.45413,-2.51038 2.04098,-3.25134 0.58685,-0.74096 1.16021,-1.94784 1.27414,-2.68196 0.69933,-4.50632 4.95611,-9.14354 9.80652,-10.68299 1.68896,-0.53605 4.45973,-2.48438 5.25142,-3.69265 0.60508,-0.92347 0.75628,-1.95219 0.28693,-1.95219 -0.36717,0 -1.78145,-2.90977 -2.40054,-4.93889 -0.89149,-2.92197 -0.48698,-6.78259 1.02196,-9.75343 1.12861,-2.22204 1.1051,-7.00926 -0.0366,-7.44737 -0.2967,-0.11385 -1.51082,0.29663 -2.69805,0.91218 -1.18723,0.61555 -2.2957,1.11918 -2.46327,1.11918 -0.66282,0 -4.72253,2.11157 -5.79546,3.01438 -0.62624,0.52695 -1.54328,1.75665 -2.03787,2.73267 -1.0312,2.03499 -3.82638,4.90416 -5.71456,5.86583 -5.895751,3.0028 -12.064256,2.06988 -16.708735,-2.52701 -1.030212,-1.01966 -2.346058,-2.80643 -2.924101,-3.97059 -0.974456,-1.96254 -1.050909,-2.39925 -1.049913,-5.99723 9.69e-4,-3.50197 0.0941,-4.06984 0.95459,-5.82083 0.524434,-1.06715 1.608338,-2.72931 2.408676,-3.69368 0.800339,-0.96438 1.753486,-2.33818 2.118106,-3.05289 0.93923,-1.84104 3.699696,-4.54804 5.974881,-5.85915 1.067153,-0.61496 2.508599,-1.64181 3.203213,-2.28189 0.694614,-0.64008 2.123364,-1.5338 3.175,-1.98606 1.051636,-0.45225 3.023313,-1.35228 4.381513,-2.00006 1.35819,-0.64779 3.26319,-1.43934 4.23333,-1.75902 0.97014,-0.31967 2.71639,-1.04512 3.88056,-1.61209 1.16416,-0.56698 3.14854,-1.17495 4.40972,-1.35106 1.26118,-0.1761 3.32493,-0.67084 4.58611,-1.09943 2.68025,-0.91082 6.18893,-0.84278 8.81944,0.17102 0.87313,0.3365 2.69875,0.91423 4.05695,1.28385 6.32607,1.72157 10.08967,5.34702 11.49142,11.06963 0.23763,0.97014 0.70705,2.39889 1.04314,3.175 0.8817,2.03601 1.3238,3.35879 1.5917,4.7625 0.12961,0.67909 0.44634,1.71097 0.70383,2.29305 1.37319,3.1042 1.52972,4.23744 1.44209,10.44082 -0.0847,5.99709 -0.11287,6.20388 -1.21209,8.90042 -1.3393,3.2855 -1.39393,3.99372 -0.33162,4.29915 1.66535,0.47881 3.33714,1.36926 5.37986,2.8655 1.16417,0.85272 3.11144,2.1979 4.32727,2.9893 1.47059,0.95723 2.73919,2.17966 3.78963,3.65172 0.86846,1.21704 2.11863,2.67372 2.77815,3.23707 0.65953,0.56335 1.73523,1.91421 2.39045,3.00191 0.65522,1.0877 1.74403,2.65134 2.41957,3.47477 1.28142,1.56192 3.16855,4.72835 3.16855,5.31653 0,0.18734 0.56121,1.18586 1.24713,2.21893 1.88327,2.83641 2.68827,5.28289 2.86076,8.69416 0.42319,8.36913 0.9635,12.03214 2.08145,14.11111 0.36518,0.6791 0.86583,1.79035 1.11255,2.46945 0.59145,1.62794 0.57611,6.81808 -0.0261,8.81944 -0.26271,0.87313 -0.59443,2.5364 -0.73714,3.69617 -0.49842,4.0504 -3.30461,8.08482 -7.1868,10.33236 -0.91891,0.532 -3.28403,1.33042 -4.98474,1.68278 -0.67273,0.13937 -1.46648,0.38797 -1.76389,0.55243 -1.36508,0.75486 -3.37713,1.37515 -4.4606,1.37515 -0.65332,0 -2.023,0.3231 -3.04372,0.71799 -1.236,0.47818 -3.32875,0.82462 -6.26559,1.03723 -2.42535,0.17558 -5.1241,0.3847 -5.99722,0.4647 -0.87313,0.08 -3.81,0.0406 -6.52639,-0.0875 z m 9.82468,-28.22657 1.00524,-0.0114 -0.19735,-3.08681 c -0.62334,-9.74996 -0.67002,-10.15011 -1.28611,-11.02431 -0.34186,-0.48507 -1.10644,-1.70577 -1.69908,-2.71268 -0.59264,-1.00691 -1.47049,-2.27691 -1.95079,-2.82222 -0.4803,-0.54532 -1.18255,-1.37862 -1.56055,-1.85179 -0.60026,-0.75138 -0.93497,-0.84883 -2.64361,-0.76969 -1.71976,0.0797 -2.13439,0.255 -3.42874,1.44994 -1.33855,1.23574 -4.80231,3.17867 -5.66679,3.17867 -0.58935,0 -1.09038,1.83357 -0.86326,3.15917 0.11785,0.6878 0.74243,2.82341 1.38796,4.7458 1.30064,3.87333 1.09771,3.65124 7.2826,7.97003 l 2.77865,1.94027 2.9183,-0.0768 c 1.60506,-0.0422 3.37065,-0.0819 3.92353,-0.0882 z m -170.867747,-66.83842 c -1.489098,-0.41435 -3.164496,-1.22345 -5.342209,-2.57992 -0.832017,-0.51825 -1.096108,-0.52683 -2.451094,-0.0796 -2.856785,0.94282 -7.743196,0.43381 -10.62109,-1.1064 -2.186937,-1.17041 -4.662277,-3.81624 -6.007284,-6.42103 -1.06809,-2.06851 -1.12803,-2.39079 -1.12803,-6.06514 0,-3.68113 0.05847,-3.99381 1.137672,-6.08425 1.669751,-3.23433 8.275959,-9.80069 11.371191,-11.30259 1.985808,-0.96358 2.498741,-1.42269 3.704167,-3.31545 1.636847,-2.57017 7.964871,-9.09756 9.679072,-9.98401 3.721186,-1.9243 6.78743,-2.32952 10.946495,-1.44662 3.301254,0.70079 5.9617724,2.034 8.1399633,4.07899 l 1.9034,1.78701 2.47484621,-0.57341 c 4.65899459,-1.07946 8.79767259,-2.31769 11.99984649,-3.59019 1.936921,-0.7697 12.597199,-0.96304 15.257737,-0.27671 5.101801,1.31609 8.766121,5.09501 10.302296,10.62451 0.831737,2.99386 2.158032,6.03628 3.772613,8.65411 4.55634,7.38748 1.81386,16.47738 -6.123103,20.2949 -2.546567,1.22485 -2.677439,1.24841 -6.202721,1.11648 -3.043826,-0.11391 -3.922646,-0.28762 -5.677502,-1.12221 -2.758112,-1.31173 -5.64065,-4.20998 -6.774512,-6.81144 -1.333987,-3.06061 -1.375975,-3.11227 -2.481796,-3.05382 -3.190101,0.16863 -8.0398008,1.61743 -9.7296581,2.90664 -0.8048081,0.61399 -3.4812955,1.73058 -6.01349321,2.50874 -0.72760419,0.22359 -1.32291669,0.54061 -1.32291669,0.70448 0,0.16386 -2.0304924,2.34094 -4.5122054,4.83794 -4.5937426,4.62203 -6.1700866,5.71086 -9.3197146,6.43738 -2.015493,0.46491 -5.028492,0.40521 -6.98197,-0.13835 z"
       id="path1" /></g></svg>
